<svg xmlns="http://www.w3.org/2000/svg" xmlns:xlink="http://www.w3.org/1999/xlink" width="72" zoomAndPan="magnify" viewBox="0 0 54 54" height="72" preserveAspectRatio="xMidYMid meet" version="1.0"><defs><filter x="0%" y="0%" width="100%" height="100%" id="84bdc64e46"><feColorMatrix values="0 0 0 0 1 0 0 0 0 1 0 0 0 0 1 0 0 0 1 0" color-interpolation-filters="sRGB"/></filter><mask id="cd24131631"><g filter="url(#84bdc64e46)"><rect x="-5.4" width="64.8" fill="#000000" y="-5.4" height="64.8" fill-opacity="0.1"/></g></mask><clipPath id="378fa7b5d9"><path d="M 0.738281 1 L 6.628906 1 L 6.628906 8.035156 L 0.738281 8.035156 Z M 0.738281 1 " clip-rule="nonzero"/></clipPath><clipPath id="802e80cd8a"><rect x="0" width="7" y="0" height="9"/></clipPath><mask id="ecc24cd382"><g filter="url(#84bdc64e46)"><rect x="-5.4" width="64.8" fill="#000000" y="-5.4" height="64.8" fill-opacity="0.1"/></g></mask><clipPath id="5ea0876309"><path d="M 0.15625 0.5625 L 6.519531 0.5625 L 6.519531 5.746094 L 0.15625 5.746094 Z M 0.15625 0.5625 " clip-rule="nonzero"/></clipPath><clipPath id="98487892b5"><rect x="0" width="7" y="0" height="6"/></clipPath><mask id="14b48b9438"><g filter="url(#84bdc64e46)"><rect x="-5.4" width="64.8" fill="#000000" y="-5.4" height="64.8" fill-opacity="0.3"/></g></mask><clipPath id="94bef007d4"><path d="M 0.382812 0.488281 L 5.566406 0.488281 L 5.566406 5.4375 L 0.382812 5.4375 Z M 0.382812 0.488281 " clip-rule="nonzero"/></clipPath><clipPath id="30dd7d6155"><rect x="0" width="6" y="0" height="6"/></clipPath><mask id="e6c3231e6a"><g filter="url(#84bdc64e46)"><rect x="-5.4" width="64.8" fill="#000000" y="-5.4" height="64.8" fill-opacity="0.1"/></g></mask><clipPath id="10b0d43dad"><path d="M 0.449219 0.855469 L 2.335938 0.855469 L 2.335938 2.742188 L 0.449219 2.742188 Z M 0.449219 0.855469 " clip-rule="nonzero"/></clipPath><clipPath id="506c9e3b33"><rect x="0" width="3" y="0" height="3"/></clipPath><mask id="d67deb7088"><g filter="url(#84bdc64e46)"><rect x="-5.4" width="64.8" fill="#000000" y="-5.4" height="64.8" fill-opacity="0.1"/></g></mask><clipPath id="22821bbbbf"><path d="M 1 0.496094 L 2.859375 0.496094 L 2.859375 2.378906 L 1 2.378906 Z M 1 0.496094 " clip-rule="nonzero"/></clipPath><clipPath id="579ea41df3"><rect x="0" width="3" y="0" height="3"/></clipPath><clipPath id="98d5cf98fc"><path d="M 38 2.386719 L 42 2.386719 L 42 12 L 38 12 Z M 38 2.386719 " clip-rule="nonzero"/></clipPath><clipPath id="7b1d28cf29"><path d="M 20 2.386719 L 24 2.386719 L 24 12 L 20 12 Z M 20 2.386719 " clip-rule="nonzero"/></clipPath><clipPath id="5394dfc814"><path d="M 37 2.386719 L 42 2.386719 L 42 12 L 37 12 Z M 37 2.386719 " clip-rule="nonzero"/></clipPath><mask id="917f4b0e46"><g filter="url(#84bdc64e46)"><rect x="-5.4" width="64.8" fill="#000000" y="-5.4" height="64.8" fill-opacity="0.3"/></g></mask><clipPath id="f241e84565"><path d="M 1 0.59375 L 4.257812 0.59375 L 4.257812 9.3125 L 1 9.3125 Z M 1 0.59375 " clip-rule="nonzero"/></clipPath><clipPath id="ade94d5789"><rect x="0" width="5" y="0" height="10"/></clipPath><clipPath id="e6f846a302"><path d="M 20 2.386719 L 24 2.386719 L 24 12 L 20 12 Z M 20 2.386719 " clip-rule="nonzero"/></clipPath><mask id="06ac108f77"><g filter="url(#84bdc64e46)"><rect x="-5.4" width="64.8" fill="#000000" y="-5.4" height="64.8" fill-opacity="0.1"/></g></mask><clipPath id="92a799b5dc"><path d="M 0.285156 0.59375 L 3.582031 0.59375 L 3.582031 9.3125 L 0.285156 9.3125 Z M 0.285156 0.59375 " clip-rule="nonzero"/></clipPath><clipPath id="ae22b4b127"><rect x="0" width="4" y="0" height="10"/></clipPath><mask id="ad103f65f4"><g filter="url(#84bdc64e46)"><rect x="-5.4" width="64.8" fill="#000000" y="-5.4" height="64.8" fill-opacity="0.3"/></g></mask><clipPath id="f32f52aa65"><path d="M 0.0195312 0.0742188 L 1.90625 0.0742188 L 1.90625 4.316406 L 0.0195312 4.316406 Z M 0.0195312 0.0742188 " clip-rule="nonzero"/></clipPath><clipPath id="ba824d5c16"><rect x="0" width="2" y="0" height="5"/></clipPath><mask id="2ff21cb447"><g filter="url(#84bdc64e46)"><rect x="-5.4" width="64.8" fill="#000000" y="-5.4" height="64.8" fill-opacity="0.3"/></g></mask><clipPath id="307a85ea28"><path d="M 0.636719 0.0742188 L 2.519531 0.0742188 L 2.519531 4.316406 L 0.636719 4.316406 Z M 0.636719 0.0742188 " clip-rule="nonzero"/></clipPath><clipPath id="2eb3bd2dff"><rect x="0" width="3" y="0" height="5"/></clipPath><mask id="8495bd7994"><g filter="url(#84bdc64e46)"><rect x="-5.4" width="64.8" fill="#000000" y="-5.4" height="64.8" fill-opacity="0.3"/></g></mask><clipPath id="9e311d829c"><path d="M 0.648438 0.304688 L 15.964844 0.304688 L 15.964844 15 L 0.648438 15 Z M 0.648438 0.304688 " clip-rule="nonzero"/></clipPath><clipPath id="b058759a68"><rect x="0" width="16" y="0" height="16"/></clipPath><mask id="951d79cf17"><g filter="url(#84bdc64e46)"><rect x="-5.4" width="64.8" fill="#000000" y="-5.4" height="64.8" fill-opacity="0.1"/></g></mask><clipPath id="da286494db"><path d="M 0.578125 0.304688 L 19.429688 0.304688 L 19.429688 15.855469 L 0.578125 15.855469 Z M 0.578125 0.304688 " clip-rule="nonzero"/></clipPath><clipPath id="4e6c455a36"><rect x="0" width="20" y="0" height="16"/></clipPath><mask id="d0bb183f26"><g filter="url(#84bdc64e46)"><rect x="-5.4" width="64.8" fill="#000000" y="-5.4" height="64.8" fill-opacity="0.1"/></g></mask><clipPath id="185553e709"><path d="M 0.761719 0.0351562 L 12.777344 0.0351562 L 12.777344 2.863281 L 0.761719 2.863281 Z M 0.761719 0.0351562 " clip-rule="nonzero"/></clipPath><clipPath id="93b28891e2"><rect x="0" width="13" y="0" height="3"/></clipPath><mask id="54e2bcea95"><g filter="url(#84bdc64e46)"><rect x="-5.4" width="64.8" fill="#000000" y="-5.4" height="64.8" fill-opacity="0.3"/></g></mask><clipPath id="6f14786412"><path d="M 0.65625 0.742188 L 4.429688 0.742188 L 4.429688 15.824219 L 0.65625 15.824219 Z M 0.65625 0.742188 " clip-rule="nonzero"/></clipPath><clipPath id="d6683886d1"><rect x="0" width="5" y="0" height="16"/></clipPath><mask id="95546c481d"><g filter="url(#84bdc64e46)"><rect x="-5.4" width="64.8" fill="#000000" y="-5.4" height="64.8" fill-opacity="0.3"/></g></mask><clipPath id="2cc7b681f3"><path d="M 0.113281 0.742188 L 3.882812 0.742188 L 3.882812 15.824219 L 0.113281 15.824219 Z M 0.113281 0.742188 " clip-rule="nonzero"/></clipPath><clipPath id="e3575a433d"><rect x="0" width="4" y="0" height="16"/></clipPath><mask id="0e6250082a"><g filter="url(#84bdc64e46)"><rect x="-5.4" width="64.8" fill="#000000" y="-5.4" height="64.8" fill-opacity="0.45"/></g></mask><clipPath id="bedd83df5a"><path d="M 1 0.691406 L 10 0.691406 L 10 3.753906 L 1 3.753906 Z M 1 0.691406 " clip-rule="nonzero"/></clipPath><clipPath id="9021d8bd0d"><rect x="0" width="11" y="0" height="4"/></clipPath><mask id="fe3c6d0077"><g filter="url(#84bdc64e46)"><rect x="-5.4" width="64.8" fill="#000000" y="-5.4" height="64.8" fill-opacity="0.1"/></g></mask><clipPath id="bda2a10417"><path d="M 1 0.21875 L 12.777344 0.21875 L 12.777344 5.636719 L 1 5.636719 Z M 1 0.21875 " clip-rule="nonzero"/></clipPath><clipPath id="e9b0a095bb"><rect x="0" width="13" y="0" height="6"/></clipPath><mask id="3f5463380f"><g filter="url(#84bdc64e46)"><rect x="-5.4" width="64.8" fill="#000000" y="-5.4" height="64.8" fill-opacity="0.1"/></g></mask><clipPath id="690e320952"><path d="M 0.550781 0.0390625 L 4 0.0390625 L 4 7.109375 L 0.550781 7.109375 Z M 0.550781 0.0390625 " clip-rule="nonzero"/></clipPath><clipPath id="abe138e7d6"><rect x="0" width="5" y="0" height="8"/></clipPath><mask id="142f3aaac7"><g filter="url(#84bdc64e46)"><rect x="-5.4" width="64.8" fill="#000000" y="-5.4" height="64.8" fill-opacity="0.1"/></g></mask><clipPath id="265eeb602a"><path d="M 0.285156 0.0351562 L 21.257812 0.0351562 L 21.257812 21 L 0.285156 21 Z M 0.285156 0.0351562 " clip-rule="nonzero"/></clipPath><clipPath id="5e59ae1f0b"><rect x="0" width="22" y="0" height="22"/></clipPath><mask id="631490fbe7"><g filter="url(#84bdc64e46)"><rect x="-5.4" width="64.8" fill="#000000" y="-5.4" height="64.8" fill-opacity="0.1"/></g></mask><clipPath id="7c6fc5cf77"><path d="M 0.664062 0.214844 L 3.257812 0.214844 L 3.257812 6.8125 L 0.664062 6.8125 Z M 0.664062 0.214844 " clip-rule="nonzero"/></clipPath><clipPath id="34329c62dd"><rect x="0" width="4" y="0" height="7"/></clipPath><mask id="a58e4a9604"><g filter="url(#84bdc64e46)"><rect x="-5.4" width="64.8" fill="#000000" y="-5.4" height="64.8" fill-opacity="0.1"/></g></mask><clipPath id="e0312e192d"><path d="M 0.433594 1 L 3.496094 1 L 3.496094 9 L 0.433594 9 Z M 0.433594 1 " clip-rule="nonzero"/></clipPath><clipPath id="a79507ad7f"><rect x="0" width="4" y="0" height="10"/></clipPath><mask id="25814505d2"><g filter="url(#84bdc64e46)"><rect x="-5.4" width="64.8" fill="#000000" y="-5.4" height="64.8" fill-opacity="0.1"/></g></mask><clipPath id="70552efde6"><path d="M 1 1 L 2.320312 1 L 2.320312 3 L 1 3 Z M 1 1 " clip-rule="nonzero"/></clipPath><clipPath id="2f2ba66c02"><rect x="0" width="3" y="0" height="4"/></clipPath><clipPath id="7383a37639"><path d="M 43 46 L 46 46 L 46 50.988281 L 43 50.988281 Z M 43 46 " clip-rule="nonzero"/></clipPath><clipPath id="689d7c1a2a"><path d="M 44 46 L 47 46 L 47 50.988281 L 44 50.988281 Z M 44 46 " clip-rule="nonzero"/></clipPath><clipPath id="1556378ae8"><path d="M 46 45 L 48 45 L 48 50.988281 L 46 50.988281 Z M 46 45 " clip-rule="nonzero"/></clipPath><mask id="cb8ebe39ef"><g filter="url(#84bdc64e46)"><rect x="-5.4" width="64.8" fill="#000000" y="-5.4" height="64.8" fill-opacity="0.3"/></g></mask><clipPath id="a24fd18de7"><path d="M 0.375 0.648438 L 4.855469 0.648438 L 4.855469 5.597656 L 0.375 5.597656 Z M 0.375 0.648438 " clip-rule="nonzero"/></clipPath><clipPath id="1bba3ef6b7"><rect x="0" width="5" y="0" height="6"/></clipPath><mask id="012f0d52ef"><g filter="url(#84bdc64e46)"><rect x="-5.4" width="64.8" fill="#000000" y="-5.4" height="64.8" fill-opacity="0.1"/></g></mask><clipPath id="4abb924a50"><path d="M 0.285156 0.214844 L 3 0.214844 L 3 6.8125 L 0.285156 6.8125 Z M 0.285156 0.214844 " clip-rule="nonzero"/></clipPath><clipPath id="d036439556"><rect x="0" width="4" y="0" height="7"/></clipPath><mask id="6c5b468494"><g filter="url(#84bdc64e46)"><rect x="-5.4" width="64.8" fill="#000000" y="-5.4" height="64.8" fill-opacity="0.1"/></g></mask><clipPath id="f9ebda963e"><path d="M 0.605469 0.15625 L 3.667969 0.15625 L 3.667969 4.867188 L 0.605469 4.867188 Z M 0.605469 0.15625 " clip-rule="nonzero"/></clipPath><clipPath id="7b733a3867"><rect x="0" width="4" y="0" height="5"/></clipPath><mask id="9c48271944"><g filter="url(#84bdc64e46)"><rect x="-5.4" width="64.8" fill="#000000" y="-5.4" height="64.8" fill-opacity="0.1"/></g></mask><clipPath id="dc9386fb7b"><path d="M 1 0.449219 L 3.753906 0.449219 L 3.753906 5.867188 L 1 5.867188 Z M 1 0.449219 " clip-rule="nonzero"/></clipPath><clipPath id="ae3664e50a"><rect x="0" width="4" y="0" height="6"/></clipPath><mask id="cee23af207"><g filter="url(#84bdc64e46)"><rect x="-5.4" width="64.8" fill="#000000" y="-5.4" height="64.8" fill-opacity="0.1"/></g></mask><clipPath id="5c370aaee0"><path d="M 0.847656 0.941406 L 2 0.941406 L 2 2.828125 L 0.847656 2.828125 Z M 0.847656 0.941406 " clip-rule="nonzero"/></clipPath><clipPath id="5d461930e1"><rect x="0" width="3" y="0" height="3"/></clipPath><mask id="e3cf45a229"><g filter="url(#84bdc64e46)"><rect x="-5.4" width="64.8" fill="#000000" y="-5.4" height="64.8" fill-opacity="0.1"/></g></mask><clipPath id="786fca9757"><path d="M 0.226562 1 L 19.3125 1 L 19.3125 13 L 0.226562 13 Z M 0.226562 1 " clip-rule="nonzero"/></clipPath><clipPath id="f66c2680a4"><rect x="0" width="20" y="0" height="14"/></clipPath><clipPath id="13d527dcc4"><path d="M 43 46 L 46 46 L 46 50.988281 L 43 50.988281 Z M 43 46 " clip-rule="nonzero"/></clipPath><clipPath id="0dbf4cc52a"><path d="M 44 46 L 47 46 L 47 50.988281 L 44 50.988281 Z M 44 46 " clip-rule="nonzero"/></clipPath><clipPath id="f0089da87e"><path d="M 45 46 L 48.34375 46 L 48.34375 50.988281 L 45 50.988281 Z M 45 46 " clip-rule="nonzero"/></clipPath><clipPath id="1b7e867d94"><path d="M 42 42 L 48.34375 42 L 48.34375 48 L 42 48 Z M 42 42 " clip-rule="nonzero"/></clipPath><clipPath id="4a6efb1131"><path d="M 37 2.386719 L 42 2.386719 L 42 12 L 37 12 Z M 37 2.386719 " clip-rule="nonzero"/></clipPath><clipPath id="2343582476"><path d="M 19 2.386719 L 24 2.386719 L 24 12 L 19 12 Z M 19 2.386719 " clip-rule="nonzero"/></clipPath><clipPath id="2d781eb99e"><path d="M 5.632812 10 L 9 10 L 9 15 L 5.632812 15 Z M 5.632812 10 " clip-rule="nonzero"/></clipPath></defs><path fill="#ffffff" d="M 14.429688 23.746094 C 14.703125 23.390625 15.210938 23.3125 15.578125 23.574219 L 20.15625 26.8125 C 20.546875 27.089844 20.628906 27.632812 20.335938 28.011719 L 20.054688 28.378906 C 19.765625 28.757812 19.214844 28.816406 18.851562 28.507812 L 14.554688 24.902344 C 14.207031 24.613281 14.152344 24.105469 14.429688 23.746094 Z M 14.429688 23.746094 " fill-opacity="1" fill-rule="nonzero"/><path fill="#ffffff" d="M 9.476562 17.632812 L 10.320312 17.039062 C 11.027344 16.535156 12.015625 16.757812 12.441406 17.515625 L 14.859375 21.835938 C 15.226562 22.488281 15.039062 23.3125 14.429688 23.746094 C 13.816406 24.179688 12.976562 24.078125 12.480469 23.515625 L 9.222656 19.792969 C 8.648438 19.136719 8.769531 18.132812 9.476562 17.632812 Z M 9.476562 17.632812 " fill-opacity="1" fill-rule="nonzero"/><g mask="url(#cd24131631)"><g transform="matrix(1, 0, 0, 1, 8, 16)"><g clip-path="url(#802e80cd8a)"><g clip-path="url(#378fa7b5d9)"><path fill="#dd601e" d="M 2.21875 1.109375 L 1.898438 1.335938 L 1.476562 1.632812 C 0.769531 2.132812 0.648438 3.136719 1.222656 3.792969 L 4.480469 7.515625 C 4.976562 8.078125 5.816406 8.179688 6.429688 7.746094 Z M 2.21875 1.109375 " fill-opacity="1" fill-rule="nonzero"/></g></g></g></g><path fill="#ffffff" d="M 9.308594 9.871094 C 9.683594 9.785156 10.054688 10.019531 10.140625 10.398438 L 10.742188 13.035156 C 10.828125 13.410156 10.59375 13.785156 10.21875 13.867188 C 9.84375 13.953125 9.46875 13.71875 9.382812 13.34375 L 8.78125 10.707031 C 8.695312 10.332031 8.933594 9.957031 9.308594 9.871094 Z M 9.308594 9.871094 " fill-opacity="1" fill-rule="nonzero"/><path fill="#ffffff" d="M 7.949219 10.183594 C 8.324219 10.097656 8.695312 10.332031 8.78125 10.707031 L 9.382812 13.34375 C 9.46875 13.71875 9.234375 14.09375 8.859375 14.179688 C 8.484375 14.265625 8.109375 14.027344 8.023438 13.652344 L 7.425781 11.015625 C 7.339844 10.640625 7.574219 10.265625 7.949219 10.183594 Z M 7.949219 10.183594 " fill-opacity="1" fill-rule="nonzero"/><path fill="#ffffff" d="M 6.589844 10.492188 C 6.964844 10.40625 7.339844 10.640625 7.425781 11.015625 L 8.023438 13.652344 C 8.109375 14.027344 7.875 14.402344 7.5 14.488281 C 7.125 14.574219 6.753906 14.339844 6.667969 13.964844 L 6.066406 11.324219 C 5.980469 10.949219 6.214844 10.578125 6.589844 10.492188 Z M 6.589844 10.492188 " fill-opacity="1" fill-rule="nonzero"/><path fill="#ffffff" d="M 12.875 12.074219 C 13.15625 12.363281 13.152344 12.824219 12.863281 13.105469 L 10.898438 15.019531 L 9.871094 13.980469 L 11.839844 12.058594 C 12.128906 11.777344 12.59375 11.78125 12.875 12.074219 Z M 12.875 12.074219 " fill-opacity="1" fill-rule="nonzero"/><path fill="#f2a717" d="M 7.117188 13.300781 L 10.050781 12.632812 C 10.558594 12.515625 11.054688 12.859375 11.125 13.375 L 11.480469 15.972656 C 11.554688 16.519531 11.199219 17.039062 10.65625 17.160156 L 9.898438 17.335938 L 8.988281 17.542969 C 8.511719 17.648438 8.027344 17.425781 7.800781 16.996094 L 6.527344 14.578125 C 6.257812 14.0625 6.546875 13.429688 7.117188 13.300781 Z M 7.117188 13.300781 " fill-opacity="1" fill-rule="nonzero"/><g mask="url(#ecc24cd382)"><g transform="matrix(1, 0, 0, 1, 14, 23)"><g clip-path="url(#98487892b5)"><g clip-path="url(#5ea0876309)"><path fill="#dd601e" d="M 0.402344 0.785156 C 0.15625 1.136719 0.21875 1.625 0.554688 1.902344 L 4.851562 5.507812 C 5.214844 5.816406 5.765625 5.757812 6.054688 5.378906 L 6.195312 5.195312 L 6.292969 5.070312 Z M 0.402344 0.785156 " fill-opacity="1" fill-rule="nonzero"/></g></g></g></g><g mask="url(#14b48b9438)"><g transform="matrix(1, 0, 0, 1, 6, 12)"><g clip-path="url(#30dd7d6155)"><g clip-path="url(#94bef007d4)"><path fill="#ffffff" d="M 5.480469 3.972656 L 5.125 1.375 C 5.054688 0.859375 4.558594 0.515625 4.050781 0.632812 L 1.117188 1.300781 C 0.546875 1.429688 0.257812 2.0625 0.527344 2.578125 L 0.601562 2.714844 L 3.074219 2.152344 C 3.582031 2.035156 4.078125 2.378906 4.152344 2.894531 L 4.46875 5.203125 L 4.65625 5.160156 C 5.199219 5.039062 5.554688 4.519531 5.480469 3.972656 Z M 5.480469 3.972656 " fill-opacity="1" fill-rule="nonzero"/></g></g></g></g><path fill="#ffffff" d="M 15.300781 23.746094 C 15.300781 23.988281 15.214844 24.191406 15.042969 24.363281 C 14.875 24.53125 14.667969 24.617188 14.429688 24.617188 C 14.1875 24.617188 13.980469 24.53125 13.8125 24.363281 C 13.640625 24.191406 13.554688 23.988281 13.554688 23.746094 C 13.554688 23.507812 13.640625 23.300781 13.8125 23.128906 C 13.980469 22.960938 14.1875 22.875 14.429688 22.875 C 14.667969 22.875 14.875 22.960938 15.042969 23.128906 C 15.214844 23.300781 15.300781 23.507812 15.300781 23.746094 Z M 15.300781 23.746094 " fill-opacity="1" fill-rule="nonzero"/><g mask="url(#e6c3231e6a)"><g transform="matrix(1, 0, 0, 1, 13, 22)"><g clip-path="url(#506c9e3b33)"><g clip-path="url(#10b0d43dad)"><path fill="#dd601e" d="M 1.929688 2.457031 C 1.539062 2.734375 0.992188 2.640625 0.714844 2.25 C 0.4375 1.855469 0.53125 1.3125 0.925781 1.035156 C 0.992188 0.988281 1.066406 0.953125 1.140625 0.925781 C 1.035156 1.191406 1.058594 1.5 1.238281 1.753906 C 1.464844 2.078125 1.878906 2.195312 2.234375 2.070312 C 2.175781 2.222656 2.074219 2.359375 1.929688 2.457031 Z M 1.929688 2.457031 " fill-opacity="1" fill-rule="nonzero"/></g></g></g></g><path fill="#ffffff" d="M 10.769531 17.335938 C 10.769531 17.574219 10.683594 17.78125 10.515625 17.949219 C 10.34375 18.121094 10.140625 18.207031 9.898438 18.207031 C 9.65625 18.207031 9.453125 18.121094 9.28125 17.949219 C 9.113281 17.78125 9.027344 17.574219 9.027344 17.335938 C 9.027344 17.09375 9.113281 16.886719 9.28125 16.71875 C 9.453125 16.546875 9.65625 16.460938 9.898438 16.460938 C 10.140625 16.460938 10.34375 16.546875 10.515625 16.71875 C 10.683594 16.886719 10.769531 17.09375 10.769531 17.335938 Z M 10.769531 17.335938 " fill-opacity="1" fill-rule="nonzero"/><g mask="url(#d67deb7088)"><g transform="matrix(1, 0, 0, 1, 8, 16)"><g clip-path="url(#579ea41df3)"><g clip-path="url(#22821bbbbf)"><path fill="#dd601e" d="M 2.707031 1.65625 C 2.347656 1.78125 1.9375 1.664062 1.707031 1.339844 C 1.53125 1.089844 1.503906 0.777344 1.609375 0.511719 C 1.199219 0.65625 0.949219 1.089844 1.050781 1.527344 C 1.15625 1.996094 1.621094 2.289062 2.09375 2.183594 C 2.417969 2.109375 2.660156 1.859375 2.742188 1.558594 C 2.730469 1.589844 2.71875 1.625 2.707031 1.65625 Z M 2.707031 1.65625 " fill-opacity="1" fill-rule="nonzero"/></g></g></g></g><g clip-path="url(#98d5cf98fc)"><path fill="#1273a2" d="M 41.238281 11.199219 C 40.59375 9.828125 39.5 8.710938 38.148438 8.039062 L 38.148438 3.011719 C 38.148438 2.78125 38.410156 2.652344 38.59375 2.789062 L 39.085938 3.160156 C 39.621094 3.566406 39.984375 4.15625 40.101562 4.816406 Z M 41.238281 11.199219 " fill-opacity="1" fill-rule="nonzero"/></g><g clip-path="url(#7b1d28cf29)"><path fill="#1273a2" d="M 23.417969 3.011719 L 23.417969 8.039062 C 22.066406 8.710938 20.972656 9.828125 20.328125 11.199219 L 21.464844 4.816406 C 21.582031 4.15625 21.941406 3.566406 22.476562 3.160156 L 22.972656 2.789062 C 23.15625 2.652344 23.417969 2.78125 23.417969 3.011719 Z M 23.417969 3.011719 " fill-opacity="1" fill-rule="nonzero"/></g><g clip-path="url(#5394dfc814)"><g mask="url(#917f4b0e46)"><g transform="matrix(1, 0, 0, 1, 37, 2)"><g clip-path="url(#ade94d5789)"><g clip-path="url(#f241e84565)"><path fill="#ffffff" d="M 4.238281 9.199219 L 3.101562 2.816406 C 2.984375 2.15625 2.621094 1.566406 2.085938 1.160156 L 1.59375 0.789062 C 1.4375 0.667969 1.21875 0.75 1.160156 0.921875 L 1.925781 1.742188 C 2.253906 2.097656 2.441406 2.558594 2.449219 3.042969 L 2.542969 6.964844 C 3.253906 7.578125 3.832031 8.339844 4.238281 9.199219 Z M 4.238281 9.199219 " fill-opacity="1" fill-rule="nonzero"/></g></g></g></g></g><g clip-path="url(#e6f846a302)"><g mask="url(#06ac108f77)"><g transform="matrix(1, 0, 0, 1, 20, 2)"><g clip-path="url(#ae22b4b127)"><g clip-path="url(#92a799b5dc)"><path fill="#dd601e" d="M 0.328125 9.199219 L 1.464844 2.816406 C 1.582031 2.15625 1.945312 1.566406 2.480469 1.160156 L 2.972656 0.789062 C 3.132812 0.667969 3.347656 0.75 3.40625 0.921875 L 2.644531 1.742188 C 2.3125 2.097656 2.125 2.558594 2.117188 3.042969 L 2.023438 6.964844 C 1.316406 7.578125 0.734375 8.339844 0.328125 9.199219 Z M 0.328125 9.199219 " fill-opacity="1" fill-rule="nonzero"/></g></g></g></g></g><path fill="#f2a717" d="M 19.6875 16.03125 C 19.6875 16.464844 19.730469 16.890625 19.808594 17.304688 L 19.425781 17.304688 C 18.683594 17.304688 18.078125 16.699219 18.078125 15.953125 L 18.078125 12.546875 C 18.078125 11.800781 18.683594 11.199219 19.425781 11.199219 L 20.328125 11.199219 C 19.917969 12.066406 19.6875 13.039062 19.6875 14.066406 Z M 19.6875 16.03125 " fill-opacity="1" fill-rule="nonzero"/><path fill="#f2a717" d="M 43.488281 12.546875 L 43.488281 15.953125 C 43.488281 16.699219 42.882812 17.304688 42.140625 17.304688 L 41.757812 17.304688 C 41.835938 16.890625 41.878906 16.464844 41.878906 16.03125 L 41.878906 14.066406 C 41.878906 13.039062 41.648438 12.066406 41.238281 11.199219 L 42.140625 11.199219 C 42.882812 11.199219 43.488281 11.800781 43.488281 12.546875 Z M 43.488281 12.546875 " fill-opacity="1" fill-rule="nonzero"/><g mask="url(#ad103f65f4)"><g transform="matrix(1, 0, 0, 1, 41, 11)"><g clip-path="url(#ba824d5c16)"><g clip-path="url(#f32f52aa65)"><path fill="#ffffff" d="M 0.878906 4.117188 C 1.386719 3.996094 1.765625 3.539062 1.765625 2.992188 L 1.765625 1.355469 C 1.765625 0.714844 1.25 0.199219 0.609375 0.199219 L 0.238281 0.199219 C 0.648438 1.066406 0.878906 2.039062 0.878906 3.066406 Z M 0.878906 4.117188 " fill-opacity="1" fill-rule="nonzero"/></g></g></g></g><g mask="url(#2ff21cb447)"><g transform="matrix(1, 0, 0, 1, 18, 11)"><g clip-path="url(#2eb3bd2dff)"><g clip-path="url(#307a85ea28)"><path fill="#ffffff" d="M 1.6875 4.117188 C 1.179688 3.996094 0.800781 3.539062 0.800781 2.992188 L 0.800781 1.355469 C 0.800781 0.714844 1.316406 0.199219 1.957031 0.199219 L 2.328125 0.199219 C 1.917969 1.066406 1.6875 2.039062 1.6875 3.066406 Z M 1.6875 4.117188 " fill-opacity="1" fill-rule="nonzero"/></g></g></g></g><path fill="#1273a2" d="M 35.144531 22.765625 L 26.421875 22.765625 C 22.703125 22.765625 19.6875 19.75 19.6875 16.03125 L 19.6875 14.066406 C 19.6875 10.347656 22.703125 7.332031 26.421875 7.332031 L 35.144531 7.332031 C 38.863281 7.332031 41.878906 10.347656 41.878906 14.066406 L 41.878906 16.03125 C 41.878906 19.75 38.863281 22.765625 35.144531 22.765625 Z M 35.144531 22.765625 " fill-opacity="1" fill-rule="nonzero"/><g mask="url(#8495bd7994)"><g transform="matrix(1, 0, 0, 1, 26, 7)"><g clip-path="url(#b058759a68)"><g clip-path="url(#9e311d829c)"><path fill="#ffffff" d="M 9.144531 0.332031 L 0.828125 0.332031 C 6.574219 0.332031 16.925781 4.199219 12.324219 14.96875 C 14.441406 13.832031 15.878906 11.601562 15.878906 9.03125 L 15.878906 7.066406 C 15.878906 3.347656 12.863281 0.332031 9.144531 0.332031 Z M 9.144531 0.332031 " fill-opacity="1" fill-rule="nonzero"/></g></g></g></g><g mask="url(#951d79cf17)"><g transform="matrix(1, 0, 0, 1, 19, 7)"><g clip-path="url(#4e6c455a36)"><g clip-path="url(#da286494db)"><path fill="#dd601e" d="M 19.199219 14.980469 L 9.960938 14.980469 C 6.183594 14.980469 3.125 11.917969 3.125 8.140625 L 3.125 6.398438 C 3.125 3.789062 4.585938 1.519531 6.738281 0.367188 C 3.339844 0.710938 0.6875 3.578125 0.6875 7.066406 L 0.6875 9.03125 C 0.6875 12.75 3.703125 15.765625 7.421875 15.765625 L 16.144531 15.765625 C 17.289062 15.765625 18.367188 15.480469 19.308594 14.976562 C 19.273438 14.976562 19.238281 14.980469 19.199219 14.980469 Z M 19.199219 14.980469 " fill-opacity="1" fill-rule="nonzero"/></g></g></g></g><path fill="#ffffff" d="M 35.144531 9.097656 C 34.632812 9.097656 34.1875 9.441406 34.050781 9.933594 L 33.648438 11.40625 C 33.453125 12.121094 32.800781 12.621094 32.058594 12.621094 L 29.507812 12.621094 C 28.765625 12.621094 28.113281 12.121094 27.917969 11.40625 L 27.515625 9.933594 C 27.378906 9.441406 26.933594 9.097656 26.421875 9.097656 C 23.675781 9.097656 21.453125 11.320312 21.453125 14.066406 L 21.453125 16.03125 C 21.453125 18.777344 23.675781 21 26.421875 21 L 35.144531 21 C 37.890625 21 40.113281 18.777344 40.113281 16.03125 L 40.113281 14.066406 C 40.113281 11.320312 37.890625 9.097656 35.144531 9.097656 Z M 35.144531 9.097656 " fill-opacity="1" fill-rule="nonzero"/><path fill="#ffffff" d="M 26.421875 20.320312 C 24.054688 20.320312 22.132812 18.398438 22.132812 16.03125 L 22.132812 14.066406 C 22.132812 11.699219 24.054688 9.777344 26.421875 9.777344 C 26.625 9.777344 26.804688 9.914062 26.859375 10.113281 L 27.261719 11.585938 C 27.539062 12.59375 28.464844 13.300781 29.507812 13.300781 L 32.058594 13.300781 C 33.101562 13.300781 34.027344 12.59375 34.300781 11.585938 L 34.707031 10.113281 C 34.761719 9.914062 34.941406 9.777344 35.144531 9.777344 C 37.511719 9.777344 39.433594 11.699219 39.433594 14.066406 L 39.433594 16.03125 C 39.433594 18.398438 37.511719 20.320312 35.144531 20.320312 Z M 26.421875 20.320312 " fill-opacity="1" fill-rule="nonzero"/><path fill="#ffffff" d="M 39.242188 25.09375 C 38.324219 24.464844 37.183594 24.121094 36.003906 24.121094 L 25.5625 24.121094 C 24.382812 24.121094 23.242188 24.464844 22.324219 25.09375 C 21.109375 25.929688 20.398438 27.195312 20.398438 28.53125 L 20.398438 29.367188 C 20.398438 33.589844 22.863281 41.460938 26.96875 43.8125 C 28.121094 44.472656 29.453125 44.792969 30.78125 44.773438 C 32.113281 44.792969 33.445312 44.472656 34.597656 43.8125 C 38.703125 41.460938 41.167969 33.589844 41.167969 29.367188 L 41.167969 28.53125 C 41.167969 27.195312 40.457031 25.929688 39.242188 25.09375 Z M 39.242188 25.09375 " fill-opacity="1" fill-rule="nonzero"/><g mask="url(#d0bb183f26)"><g transform="matrix(1, 0, 0, 1, 24, 24)"><g clip-path="url(#93b28891e2)"><g clip-path="url(#185553e709)"><path fill="#dd601e" d="M 12.765625 0.238281 C 12.765625 0.214844 12.761719 0.191406 12.761719 0.167969 C 12.511719 0.136719 12.261719 0.121094 12.003906 0.121094 L 1.5625 0.121094 C 1.304688 0.121094 1.054688 0.136719 0.804688 0.167969 C 0.804688 0.191406 0.800781 0.214844 0.800781 0.238281 C 0.800781 1.652344 3.480469 2.804688 6.78125 2.804688 C 10.085938 2.804688 12.765625 1.652344 12.765625 0.238281 Z M 12.765625 0.238281 " fill-opacity="1" fill-rule="nonzero"/></g></g></g></g><path fill="#1273a2" d="M 41.167969 29.367188 L 41.167969 28.53125 C 41.167969 27.195312 40.457031 25.929688 39.242188 25.09375 C 39.019531 24.941406 38.785156 24.808594 38.542969 24.691406 L 38.324219 24.777344 C 38.324219 24.777344 35.242188 26.550781 35.019531 27.953125 C 34.167969 33.3125 38.324219 39.609375 38.324219 39.609375 C 40.148438 36.3125 41.167969 32.085938 41.167969 29.367188 Z M 41.167969 29.367188 " fill-opacity="1" fill-rule="nonzero"/><path fill="#1273a2" d="M 20.398438 29.367188 L 20.398438 28.53125 C 20.398438 27.195312 21.109375 25.929688 22.324219 25.09375 C 22.546875 24.941406 22.78125 24.808594 23.023438 24.691406 L 23.242188 24.777344 C 23.242188 24.777344 26.324219 26.550781 26.546875 27.953125 C 27.398438 33.3125 23.242188 39.609375 23.242188 39.609375 C 21.417969 36.3125 20.398438 32.085938 20.398438 29.367188 Z M 20.398438 29.367188 " fill-opacity="1" fill-rule="nonzero"/><g mask="url(#54e2bcea95)"><g transform="matrix(1, 0, 0, 1, 34, 24)"><g clip-path="url(#d6683886d1)"><g clip-path="url(#6f14786412)"><path fill="#ffffff" d="M 2.285156 4.125 C 2.507812 2.722656 4.324219 0.777344 4.324219 0.777344 C 4.324219 0.777344 1.242188 2.550781 1.019531 3.953125 C 0.167969 9.3125 4.324219 15.609375 4.324219 15.609375 C 4.324219 15.609375 1.433594 9.484375 2.285156 4.125 Z M 2.285156 4.125 " fill-opacity="1" fill-rule="nonzero"/></g></g></g></g><g mask="url(#95546c481d)"><g transform="matrix(1, 0, 0, 1, 23, 24)"><g clip-path="url(#e3575a433d)"><g clip-path="url(#2cc7b681f3)"><path fill="#ffffff" d="M 2.28125 4.125 C 2.058594 2.722656 0.242188 0.777344 0.242188 0.777344 C 0.242188 0.777344 3.324219 2.550781 3.546875 3.953125 C 4.398438 9.3125 0.242188 15.609375 0.242188 15.609375 C 0.242188 15.609375 3.132812 9.484375 2.28125 4.125 Z M 2.28125 4.125 " fill-opacity="1" fill-rule="nonzero"/></g></g></g></g><path fill="#f2a717" d="M 33.980469 34.449219 L 27.585938 34.449219 C 26.167969 34.449219 25.019531 33.300781 25.019531 31.882812 C 25.019531 30.464844 26.167969 29.3125 27.585938 29.3125 L 33.980469 29.3125 C 35.398438 29.3125 36.546875 30.464844 36.546875 31.882812 C 36.546875 33.300781 35.398438 34.449219 33.980469 34.449219 Z M 33.980469 34.449219 " fill-opacity="1" fill-rule="nonzero"/><g mask="url(#0e6250082a)"><g transform="matrix(1, 0, 0, 1, 26, 29)"><g clip-path="url(#9021d8bd0d)"><g clip-path="url(#bedd83df5a)"><path fill="#ffffff" d="M 7.421875 1.449219 C 8.679688 1.449219 9.71875 2.40625 9.855469 3.628906 C 9.941406 3.402344 9.988281 3.160156 9.988281 2.902344 C 9.988281 1.78125 9.078125 0.871094 7.957031 0.871094 L 1.894531 0.871094 C 1.34375 0.871094 1.136719 1.226562 1.0625 1.449219 Z M 7.421875 1.449219 " fill-opacity="1" fill-rule="nonzero"/></g></g></g></g><path fill="#ffffff" d="M 43.921875 35.023438 C 44.351562 34.875 44.585938 34.421875 44.460938 33.988281 L 42.871094 28.609375 C 42.738281 28.152344 42.246094 27.898438 41.792969 28.050781 L 41.574219 28.125 L 41.359375 28.199219 C 40.90625 28.355469 40.671875 28.855469 40.84375 29.300781 L 42.867188 34.53125 C 43.03125 34.949219 43.496094 35.167969 43.921875 35.023438 Z M 43.921875 35.023438 " fill-opacity="1" fill-rule="nonzero"/><g mask="url(#fe3c6d0077)"><g transform="matrix(1, 0, 0, 1, 24, 29)"><g clip-path="url(#e9b0a095bb)"><g clip-path="url(#bda2a10417)"><path fill="#dd601e" d="M 10.386719 4.644531 L 4.003906 4.644531 C 2.8125 4.644531 1.84375 3.679688 1.84375 2.484375 L 1.84375 2.472656 C 1.84375 1.28125 2.8125 0.3125 4.003906 0.3125 L 9.988281 0.3125 C 9.988281 0.3125 9.984375 0.3125 9.980469 0.3125 L 3.585938 0.3125 C 2.167969 0.3125 1.019531 1.464844 1.019531 2.882812 C 1.019531 4.300781 2.167969 5.449219 3.585938 5.449219 L 9.980469 5.449219 C 11.398438 5.449219 12.546875 4.300781 12.546875 2.882812 C 12.546875 2.8125 12.542969 2.742188 12.539062 2.675781 C 12.441406 3.78125 11.515625 4.644531 10.386719 4.644531 Z M 10.386719 4.644531 " fill-opacity="1" fill-rule="nonzero"/></g></g></g></g><path fill="#1273a2" d="M 23.929688 40.746094 C 24.800781 42.066406 25.820312 43.15625 26.96875 43.8125 C 28.121094 44.472656 29.453125 44.792969 30.78125 44.773438 C 32.113281 44.792969 33.445312 44.472656 34.597656 43.8125 C 35.746094 43.15625 36.765625 42.066406 37.636719 40.746094 C 33.066406 42.417969 28.5 42.417969 23.929688 40.746094 Z M 23.929688 40.746094 " fill-opacity="1" fill-rule="nonzero"/><g mask="url(#3f5463380f)"><g transform="matrix(1, 0, 0, 1, 40, 28)"><g clip-path="url(#abe138e7d6)"><g clip-path="url(#690e320952)"><path fill="#dd601e" d="M 1.808594 0.046875 C 1.804688 0.046875 1.800781 0.0507812 1.792969 0.0507812 L 1.574219 0.125 L 1.359375 0.199219 C 0.90625 0.355469 0.671875 0.855469 0.84375 1.300781 L 2.867188 6.53125 C 3.03125 6.949219 3.496094 7.167969 3.921875 7.023438 C 3.949219 7.011719 3.976562 7.003906 4 6.992188 Z M 1.808594 0.046875 " fill-opacity="1" fill-rule="nonzero"/></g></g></g></g><g mask="url(#142f3aaac7)"><g transform="matrix(1, 0, 0, 1, 20, 24)"><g clip-path="url(#5e59ae1f0b)"><g clip-path="url(#265eeb602a)"><path fill="#dd601e" d="M 19.242188 1.09375 C 18.324219 0.464844 17.183594 0.121094 16.003906 0.121094 L 15.609375 0.121094 C 16.699219 0.121094 17.753906 0.425781 18.601562 0.988281 C 19.726562 1.730469 20.382812 2.855469 20.382812 4.046875 L 20.382812 4.789062 C 20.382812 8.550781 18.105469 15.144531 14.308594 17.242188 C 13.246094 17.828125 12.011719 18.113281 10.78125 18.097656 C 9.554688 18.113281 8.320312 17.828125 7.257812 17.242188 C 3.460938 15.144531 1.183594 8.550781 1.183594 4.789062 L 1.183594 4.046875 C 1.183594 2.855469 1.839844 1.730469 2.964844 0.988281 C 3.8125 0.425781 4.867188 0.121094 5.957031 0.121094 L 5.5625 0.121094 C 4.382812 0.121094 3.242188 0.464844 2.324219 1.09375 C 1.109375 1.929688 0.398438 3.195312 0.398438 4.53125 L 0.398438 5.367188 C 0.398438 9.589844 2.863281 17.460938 6.96875 19.8125 C 8.121094 20.472656 9.453125 20.792969 10.78125 20.773438 C 12.113281 20.792969 13.445312 20.472656 14.597656 19.8125 C 18.703125 17.460938 21.167969 9.589844 21.167969 5.367188 L 21.167969 4.53125 C 21.167969 3.195312 20.457031 1.929688 19.242188 1.09375 Z M 19.242188 1.09375 " fill-opacity="1" fill-rule="nonzero"/></g></g></g></g><g mask="url(#631490fbe7)"><g transform="matrix(1, 0, 0, 1, 38, 25)"><g clip-path="url(#34329c62dd)"><g clip-path="url(#7c6fc5cf77)"><path fill="#dd601e" d="M 1.480469 0.269531 C 1.304688 0.453125 1.15625 0.675781 1.039062 0.929688 C 0.726562 1.605469 0.683594 2.417969 0.683594 3.125 C 0.683594 3.832031 0.726562 4.648438 1.039062 5.324219 C 1.40625 6.125 2.089844 6.589844 2.980469 6.644531 C 3.105469 5.816406 3.167969 5.042969 3.167969 4.367188 L 3.167969 3.53125 C 3.167969 2.285156 2.550781 1.105469 1.480469 0.269531 Z M 1.480469 0.269531 " fill-opacity="1" fill-rule="nonzero"/></g></g></g></g><path fill="#ffffff" d="M 45.246094 42.777344 L 44.734375 42.832031 L 44.222656 42.882812 C 43.355469 42.972656 42.605469 42.296875 42.605469 41.425781 L 42.609375 36.476562 C 42.609375 35.726562 43.175781 35.097656 43.921875 35.023438 C 44.667969 34.945312 45.355469 35.441406 45.507812 36.175781 L 46.527344 41.019531 C 46.707031 41.871094 46.109375 42.6875 45.246094 42.777344 Z M 45.246094 42.777344 " fill-opacity="1" fill-rule="nonzero"/><g mask="url(#a58e4a9604)"><g transform="matrix(1, 0, 0, 1, 42, 34)"><g clip-path="url(#a79507ad7f)"><g clip-path="url(#e0312e192d)"><path fill="#dd601e" d="M 3.367188 7.765625 C 3.417969 7.304688 3.394531 6.839844 3.304688 6.386719 L 2.226562 1.023438 C 2.128906 1.011719 2.027344 1.011719 1.921875 1.023438 C 1.175781 1.097656 0.609375 1.726562 0.609375 2.476562 L 0.605469 7.425781 C 0.605469 8.296875 1.355469 8.972656 2.222656 8.882812 L 2.734375 8.832031 L 3.246094 8.777344 C 3.25 8.777344 3.257812 8.777344 3.261719 8.777344 Z M 3.367188 7.765625 " fill-opacity="1" fill-rule="nonzero"/></g></g></g></g><path fill="#ffffff" d="M 43.445312 28.125 C 43.445312 29.511719 42.425781 30.632812 41.167969 30.632812 C 39.910156 30.632812 39.703125 29.511719 39.703125 28.125 C 39.703125 26.742188 39.910156 25.621094 41.167969 25.621094 C 42.425781 25.621094 43.445312 26.742188 43.445312 28.125 Z M 43.445312 28.125 " fill-opacity="1" fill-rule="nonzero"/><path fill="#ffffff" d="M 44.796875 35.023438 C 44.796875 35.261719 44.710938 35.46875 44.539062 35.636719 C 44.371094 35.808594 44.164062 35.894531 43.921875 35.894531 C 43.683594 35.894531 43.476562 35.808594 43.308594 35.636719 C 43.136719 35.46875 43.050781 35.261719 43.050781 35.023438 C 43.050781 34.78125 43.136719 34.574219 43.308594 34.40625 C 43.476562 34.234375 43.683594 34.152344 43.921875 34.152344 C 44.164062 34.152344 44.371094 34.234375 44.539062 34.40625 C 44.710938 34.574219 44.796875 34.78125 44.796875 35.023438 Z M 44.796875 35.023438 " fill-opacity="1" fill-rule="nonzero"/><g mask="url(#25814505d2)"><g transform="matrix(1, 0, 0, 1, 42, 33)"><g clip-path="url(#2f2ba66c02)"><g clip-path="url(#70552efde6)"><path fill="#dd601e" d="M 1.773438 1.164062 C 1.328125 1.242188 1.007812 1.652344 1.058594 2.113281 C 1.105469 2.589844 1.535156 2.9375 2.011719 2.890625 C 2.113281 2.878906 2.203125 2.851562 2.289062 2.8125 C 1.773438 2.597656 1.433594 1.699219 1.773438 1.164062 Z M 1.773438 1.164062 " fill-opacity="1" fill-rule="nonzero"/></g></g></g></g><g clip-path="url(#7383a37639)"><path fill="#ffffff" d="M 44.421875 50.308594 C 44.039062 50.351562 43.699219 50.070312 43.65625 49.6875 L 43.378906 46.996094 C 43.339844 46.613281 43.617188 46.273438 44 46.234375 C 44.382812 46.191406 44.726562 46.472656 44.765625 46.855469 L 45.042969 49.546875 C 45.082031 49.929688 44.804688 50.269531 44.421875 50.308594 Z M 44.421875 50.308594 " fill-opacity="1" fill-rule="nonzero"/></g><g clip-path="url(#689d7c1a2a)"><path fill="#ffffff" d="M 45.808594 50.167969 C 45.425781 50.207031 45.082031 49.929688 45.042969 49.546875 L 44.765625 46.855469 C 44.726562 46.472656 45.003906 46.128906 45.386719 46.089844 C 45.769531 46.050781 46.109375 46.328125 46.152344 46.710938 L 46.429688 49.402344 C 46.46875 49.785156 46.191406 50.125 45.808594 50.167969 Z M 45.808594 50.167969 " fill-opacity="1" fill-rule="nonzero"/></g><g clip-path="url(#1556378ae8)"><path fill="#ffffff" d="M 47.195312 50.023438 C 46.8125 50.0625 46.46875 49.785156 46.429688 49.402344 L 46.152344 46.710938 C 46.109375 46.328125 46.390625 45.984375 46.773438 45.945312 C 47.152344 45.90625 47.496094 46.183594 47.535156 46.566406 L 47.816406 49.257812 C 47.855469 49.640625 47.578125 49.984375 47.195312 50.023438 Z M 47.195312 50.023438 " fill-opacity="1" fill-rule="nonzero"/></g><path fill="#ffffff" d="M 41.457031 48.023438 C 41.144531 47.765625 41.101562 47.304688 41.355469 46.992188 L 43.09375 44.875 L 44.230469 45.792969 L 42.488281 47.921875 C 42.230469 48.234375 41.769531 48.277344 41.457031 48.023438 Z M 41.457031 48.023438 " fill-opacity="1" fill-rule="nonzero"/><path fill="#f2a717" d="M 47.011719 47.171875 L 44.015625 47.480469 C 43.5 47.535156 43.046875 47.132812 43.039062 46.613281 L 43 43.992188 C 42.992188 43.4375 43.40625 42.96875 43.960938 42.910156 L 44.734375 42.832031 L 45.664062 42.734375 C 46.148438 42.683594 46.605469 42.964844 46.777344 43.417969 L 47.746094 45.972656 C 47.953125 46.519531 47.589844 47.109375 47.011719 47.171875 Z M 47.011719 47.171875 " fill-opacity="1" fill-rule="nonzero"/><g mask="url(#cb8ebe39ef)"><g transform="matrix(1, 0, 0, 1, 43, 42)"><g clip-path="url(#1bba3ef6b7)"><g clip-path="url(#a24fd18de7)"><path fill="#ffffff" d="M 4.746094 3.972656 L 3.777344 1.417969 C 3.605469 0.964844 3.148438 0.683594 2.664062 0.734375 L 2.414062 0.761719 L 3.476562 3.648438 C 3.621094 4.046875 3.511719 4.488281 3.195312 4.769531 C 3.046875 4.902344 2.863281 4.992188 2.664062 5.019531 L 0.457031 5.351562 C 0.539062 5.398438 0.617188 5.4375 0.691406 5.453125 C 0.792969 5.480469 0.902344 5.492188 1.015625 5.480469 L 4.011719 5.171875 C 4.589844 5.109375 4.953125 4.519531 4.746094 3.972656 Z M 4.746094 3.972656 " fill-opacity="1" fill-rule="nonzero"/></g></g></g></g><g mask="url(#012f0d52ef)"><g transform="matrix(1, 0, 0, 1, 20, 25)"><g clip-path="url(#d036439556)"><g clip-path="url(#4abb924a50)"><path fill="#dd601e" d="M 2.527344 5.324219 C 2.839844 4.648438 2.882812 3.832031 2.882812 3.125 C 2.882812 2.417969 2.839844 1.605469 2.527344 0.929688 C 2.410156 0.675781 2.261719 0.453125 2.085938 0.269531 C 1.015625 1.105469 0.398438 2.285156 0.398438 3.53125 L 0.398438 4.367188 C 0.398438 5.042969 0.460938 5.816406 0.585938 6.644531 C 1.476562 6.589844 2.160156 6.125 2.527344 5.324219 Z M 2.527344 5.324219 " fill-opacity="1" fill-rule="nonzero"/></g></g></g></g><g mask="url(#6c5b468494)"><g transform="matrix(1, 0, 0, 1, 39, 26)"><g clip-path="url(#7b733a3867)"><g clip-path="url(#f9ebda963e)"><path fill="#dd601e" d="M 1.035156 0.214844 C 0.765625 0.675781 0.703125 1.359375 0.703125 2.125 C 0.703125 3.511719 0.910156 4.632812 2.167969 4.632812 C 2.460938 4.632812 2.742188 4.570312 3 4.460938 C 4.378906 3.210938 2.113281 0.0117188 1.035156 0.214844 Z M 1.035156 0.214844 " fill-opacity="1" fill-rule="nonzero"/></g></g></g></g><path fill="#ffffff" d="M 18.121094 28.125 C 18.121094 29.511719 19.140625 30.632812 20.398438 30.632812 C 21.65625 30.632812 21.863281 29.511719 21.863281 28.125 C 21.863281 26.742188 21.65625 25.621094 20.398438 25.621094 C 19.140625 25.621094 18.121094 26.742188 18.121094 28.125 Z M 18.121094 28.125 " fill-opacity="1" fill-rule="nonzero"/><g mask="url(#9c48271944)"><g transform="matrix(1, 0, 0, 1, 17, 25)"><g clip-path="url(#ae3664e50a)"><g clip-path="url(#dc9386fb7b)"><path fill="#dd601e" d="M 2.527344 3.125 C 2.527344 4.378906 3.050781 5.417969 3.730469 5.601562 C 3.628906 5.621094 3.519531 5.632812 3.398438 5.632812 C 2.140625 5.632812 1.121094 4.511719 1.121094 3.125 C 1.121094 1.742188 2.140625 0.621094 3.398438 0.621094 C 3.519531 0.621094 3.628906 0.628906 3.730469 0.648438 C 3.050781 0.835938 2.527344 1.875 2.527344 3.125 Z M 2.527344 3.125 " fill-opacity="1" fill-rule="nonzero"/></g></g></g></g><path fill="#ffffff" d="M 45.605469 42.832031 C 45.605469 43.070312 45.519531 43.277344 45.351562 43.449219 C 45.179688 43.617188 44.972656 43.703125 44.734375 43.703125 C 44.492188 43.703125 44.289062 43.617188 44.117188 43.449219 C 43.949219 43.277344 43.863281 43.070312 43.863281 42.832031 C 43.863281 42.589844 43.949219 42.386719 44.117188 42.214844 C 44.289062 42.046875 44.492188 41.960938 44.734375 41.960938 C 44.972656 41.960938 45.179688 42.046875 45.351562 42.214844 C 45.519531 42.386719 45.605469 42.589844 45.605469 42.832031 Z M 45.605469 42.832031 " fill-opacity="1" fill-rule="nonzero"/><g mask="url(#cee23af207)"><g transform="matrix(1, 0, 0, 1, 43, 41)"><g clip-path="url(#5d461930e1)"><g clip-path="url(#5c370aaee0)"><path fill="#dd601e" d="M 1.632812 1.929688 C 1.632812 1.625 1.71875 1.1875 1.875 0.972656 C 1.800781 0.960938 1.722656 0.957031 1.644531 0.964844 C 1.164062 1.015625 0.816406 1.441406 0.867188 1.921875 C 0.917969 2.398438 1.34375 2.746094 1.824219 2.699219 C 1.835938 2.695312 1.851562 2.695312 1.863281 2.691406 C 1.714844 2.507812 1.636719 2.117188 1.632812 1.929688 Z M 1.632812 1.929688 " fill-opacity="1" fill-rule="nonzero"/></g></g></g></g><g mask="url(#e3cf45a229)"><g transform="matrix(1, 0, 0, 1, 21, 8)"><g clip-path="url(#f66c2680a4)"><g clip-path="url(#786fca9757)"><path fill="#dd601e" d="M 14.144531 1.097656 C 13.632812 1.097656 13.1875 1.441406 13.050781 1.933594 L 12.648438 3.40625 C 12.453125 4.121094 11.800781 4.621094 11.058594 4.621094 L 8.507812 4.621094 C 7.765625 4.621094 7.113281 4.121094 6.917969 3.40625 L 6.515625 1.933594 C 6.378906 1.441406 5.933594 1.097656 5.421875 1.097656 C 2.675781 1.097656 0.453125 3.320312 0.453125 6.066406 L 0.453125 8.03125 C 0.453125 10.777344 2.675781 13 5.421875 13 L 14.144531 13 C 16.890625 13 19.113281 10.777344 19.113281 8.03125 L 19.113281 6.066406 C 19.113281 3.320312 16.890625 1.097656 14.144531 1.097656 Z M 18.433594 7.84375 C 14.480469 9.324219 5.085938 9.324219 1.132812 7.84375 L 1.132812 6.066406 C 1.132812 3.699219 3.054688 1.777344 5.421875 1.777344 C 5.625 1.777344 5.804688 1.914062 5.859375 2.113281 L 6.261719 3.585938 C 6.539062 4.59375 7.464844 5.300781 8.507812 5.300781 L 11.058594 5.300781 C 12.101562 5.300781 13.027344 4.59375 13.300781 3.585938 L 13.707031 2.113281 C 13.761719 1.914062 13.941406 1.777344 14.144531 1.777344 C 16.511719 1.777344 18.433594 3.699219 18.433594 6.066406 Z M 18.433594 7.84375 " fill-opacity="1" fill-rule="nonzero"/></g></g></g></g><path fill="#403d37" d="M 35.535156 15.328125 C 35.535156 15.472656 35.507812 15.609375 35.453125 15.742188 C 35.398438 15.875 35.320312 15.992188 35.21875 16.09375 C 35.117188 16.195312 35 16.273438 34.867188 16.328125 C 34.738281 16.382812 34.597656 16.410156 34.457031 16.410156 C 34.3125 16.410156 34.175781 16.382812 34.042969 16.328125 C 33.910156 16.273438 33.792969 16.195312 33.691406 16.09375 C 33.589844 15.992188 33.511719 15.875 33.457031 15.742188 C 33.402344 15.609375 33.375 15.472656 33.375 15.328125 C 33.375 15.1875 33.402344 15.050781 33.457031 14.917969 C 33.511719 14.785156 33.589844 14.667969 33.691406 14.566406 C 33.792969 14.464844 33.910156 14.386719 34.042969 14.332031 C 34.175781 14.277344 34.3125 14.25 34.457031 14.25 C 34.597656 14.25 34.738281 14.277344 34.867188 14.332031 C 35 14.386719 35.117188 14.464844 35.21875 14.566406 C 35.320312 14.667969 35.398438 14.785156 35.453125 14.917969 C 35.507812 15.050781 35.535156 15.1875 35.535156 15.328125 Z M 35.535156 15.328125 " fill-opacity="1" fill-rule="nonzero"/><path fill="#403d37" d="M 28.191406 15.328125 C 28.191406 15.472656 28.164062 15.609375 28.109375 15.742188 C 28.054688 15.875 27.976562 15.992188 27.875 16.09375 C 27.773438 16.195312 27.65625 16.273438 27.523438 16.328125 C 27.390625 16.382812 27.253906 16.410156 27.109375 16.410156 C 26.96875 16.410156 26.828125 16.382812 26.699219 16.328125 C 26.566406 16.273438 26.449219 16.195312 26.347656 16.09375 C 26.246094 15.992188 26.167969 15.875 26.113281 15.742188 C 26.058594 15.609375 26.03125 15.472656 26.03125 15.328125 C 26.03125 15.1875 26.058594 15.050781 26.113281 14.917969 C 26.167969 14.785156 26.246094 14.667969 26.347656 14.566406 C 26.449219 14.464844 26.566406 14.386719 26.699219 14.332031 C 26.828125 14.277344 26.96875 14.25 27.109375 14.25 C 27.253906 14.25 27.390625 14.277344 27.523438 14.332031 C 27.65625 14.386719 27.773438 14.464844 27.875 14.566406 C 27.976562 14.667969 28.054688 14.785156 28.109375 14.917969 C 28.164062 15.050781 28.191406 15.1875 28.191406 15.328125 Z M 28.191406 15.328125 " fill-opacity="1" fill-rule="nonzero"/><path fill="#403d37" d="M 30.78125 42.300781 C 28.457031 42.300781 26.132812 41.878906 23.824219 41.035156 L 23.730469 41 L 23.671875 40.914062 C 23.429688 40.546875 23.195312 40.160156 22.972656 39.757812 L 22.863281 39.554688 L 23.003906 39.414062 C 23.175781 39.148438 24.699219 36.75 25.632812 33.746094 L 25.769531 33.304688 L 26.125 33.605469 C 26.53125 33.953125 27.050781 34.144531 27.585938 34.144531 L 33.980469 34.144531 C 34.515625 34.144531 35.035156 33.953125 35.441406 33.605469 L 35.796875 33.304688 L 35.933594 33.746094 C 36.867188 36.75 38.390625 39.148438 38.5625 39.414062 L 38.703125 39.554688 L 38.59375 39.757812 C 38.371094 40.160156 38.136719 40.546875 37.890625 40.914062 L 37.835938 41 L 37.742188 41.035156 C 35.433594 41.878906 33.109375 42.300781 30.78125 42.300781 Z M 24.128906 40.492188 C 28.542969 42.085938 33.023438 42.085938 37.4375 40.492188 C 37.621094 40.214844 37.796875 39.921875 37.96875 39.621094 C 37.550781 38.964844 36.316406 36.839844 35.480469 34.332031 C 35.03125 34.605469 34.511719 34.753906 33.980469 34.753906 L 27.585938 34.753906 C 27.054688 34.753906 26.535156 34.605469 26.085938 34.332031 C 25.25 36.839844 24.015625 38.964844 23.597656 39.621094 C 23.769531 39.921875 23.945312 40.214844 24.128906 40.492188 Z M 24.128906 40.492188 " fill-opacity="1" fill-rule="nonzero"/><path fill="#403d37" d="M 35.210938 29.933594 L 34.792969 29.769531 C 34.535156 29.671875 34.261719 29.621094 33.980469 29.621094 L 27.585938 29.621094 C 27.304688 29.621094 27.03125 29.671875 26.773438 29.769531 L 26.355469 29.933594 L 26.355469 29.484375 C 26.355469 28.972656 26.320312 28.472656 26.242188 28.003906 C 26.082031 26.976562 23.941406 25.535156 23.105469 25.050781 L 22.269531 24.714844 L 22.890625 24.414062 C 23.707031 24.023438 24.628906 23.8125 25.5625 23.8125 L 36.003906 23.8125 C 36.9375 23.8125 37.859375 24.023438 38.675781 24.414062 L 39.296875 24.714844 L 38.460938 25.050781 C 37.625 25.535156 35.484375 26.980469 35.320312 28.003906 C 35.246094 28.472656 35.210938 28.972656 35.210938 29.484375 Z M 23.746094 24.722656 C 24.609375 25.261719 26.648438 26.652344 26.847656 27.90625 C 26.90625 28.28125 26.945312 28.675781 26.960938 29.078125 C 27.164062 29.03125 27.375 29.007812 27.585938 29.007812 L 33.980469 29.007812 C 34.191406 29.007812 34.402344 29.03125 34.605469 29.078125 C 34.621094 28.675781 34.65625 28.28125 34.71875 27.90625 C 34.917969 26.652344 36.957031 25.261719 37.820312 24.722656 C 37.246094 24.527344 36.628906 24.425781 36.003906 24.425781 L 25.5625 24.425781 C 24.9375 24.425781 24.320312 24.527344 23.746094 24.722656 Z M 23.746094 24.722656 " fill-opacity="1" fill-rule="nonzero"/><path fill="#403d37" d="M 23.929688 41.050781 L 23.929688 40.875 L 23.734375 41.007812 C 23.714844 40.976562 23.695312 40.945312 23.675781 40.917969 L 23.359375 40.441406 L 24.09375 40.441406 L 24.242188 40.664062 L 23.929688 40.875 Z M 23.929688 41.050781 " fill-opacity="1" fill-rule="nonzero"/><path fill="#403d37" d="M 37.636719 41.050781 L 37.636719 40.875 L 37.324219 40.664062 L 37.472656 40.441406 L 38.207031 40.441406 L 37.890625 40.917969 L 37.636719 40.746094 L 37.890625 40.917969 C 37.871094 40.945312 37.851562 40.976562 37.832031 41.007812 L 37.636719 40.875 Z M 37.636719 41.050781 " fill-opacity="1" fill-rule="nonzero"/><path fill="#403d37" d="M 38.347656 40.199219 L 38.070312 39.777344 C 38 39.671875 36.351562 37.148438 35.347656 33.929688 L 35.289062 33.734375 L 35.441406 33.605469 C 35.949219 33.175781 36.242188 32.546875 36.242188 31.882812 C 36.242188 30.953125 35.660156 30.105469 34.792969 29.769531 L 34.597656 29.695312 L 34.597656 29.488281 C 34.597656 28.941406 34.636719 28.40625 34.71875 27.90625 C 34.957031 26.402344 37.84375 24.699219 38.171875 24.511719 L 38.210938 24.492188 L 38.550781 24.355469 L 38.675781 24.414062 C 38.933594 24.539062 39.183594 24.683594 39.414062 24.839844 C 39.808594 25.113281 40.15625 25.429688 40.449219 25.78125 L 40.625 25.992188 L 40.433594 26.1875 C 40.058594 26.582031 40.007812 27.429688 40.007812 28.125 C 40.007812 29.703125 40.308594 30.300781 41.113281 30.324219 L 41.4375 30.335938 L 41.40625 30.660156 C 41.128906 33.632812 40.050781 37.117188 38.59375 39.757812 Z M 35.992188 33.933594 C 36.738281 36.25 37.804688 38.164062 38.304688 39 C 39.550781 36.582031 40.476562 33.554688 40.769531 30.902344 C 39.398438 30.632812 39.398438 28.960938 39.398438 28.125 C 39.398438 27.375 39.449219 26.550781 39.816406 25.988281 C 39.59375 25.75 39.34375 25.535156 39.066406 25.347656 C 38.898438 25.230469 38.71875 25.121094 38.527344 25.023438 L 38.457031 25.050781 C 37.625 25.535156 35.484375 26.980469 35.320312 28.003906 C 35.257812 28.410156 35.21875 28.84375 35.210938 29.285156 C 36.203125 29.757812 36.855469 30.773438 36.855469 31.882812 C 36.855469 32.65625 36.542969 33.394531 35.992188 33.933594 Z M 35.992188 33.933594 " fill-opacity="1" fill-rule="nonzero"/><path fill="#403d37" d="M 23.21875 40.199219 L 22.972656 39.757812 C 21.515625 37.117188 20.4375 33.632812 20.15625 30.660156 L 20.128906 30.335938 L 20.453125 30.324219 C 21.257812 30.300781 21.558594 29.703125 21.558594 28.125 C 21.558594 27.429688 21.507812 26.582031 21.132812 26.1875 L 20.941406 25.992188 L 21.117188 25.78125 C 21.410156 25.429688 21.757812 25.113281 22.152344 24.839844 C 22.382812 24.683594 22.632812 24.539062 22.890625 24.414062 L 23.015625 24.355469 L 23.394531 24.511719 C 23.722656 24.699219 26.609375 26.402344 26.847656 27.90625 C 26.929688 28.40625 26.96875 28.941406 26.96875 29.488281 L 26.96875 29.695312 L 26.773438 29.769531 C 25.90625 30.105469 25.324219 30.953125 25.324219 31.882812 C 25.324219 32.546875 25.617188 33.175781 26.125 33.605469 L 26.277344 33.734375 L 26.21875 33.929688 C 25.214844 37.148438 23.566406 39.671875 23.496094 39.777344 Z M 20.796875 30.902344 C 21.089844 33.554688 22.015625 36.582031 23.261719 39 C 23.761719 38.164062 24.828125 36.25 25.574219 33.933594 C 25.023438 33.394531 24.710938 32.65625 24.710938 31.882812 C 24.710938 30.773438 25.363281 29.757812 26.355469 29.285156 C 26.347656 28.84375 26.308594 28.410156 26.242188 28.003906 C 26.082031 26.980469 23.941406 25.535156 23.105469 25.050781 L 23.039062 25.023438 C 22.847656 25.121094 22.667969 25.230469 22.5 25.347656 C 22.222656 25.535156 21.972656 25.75 21.75 25.988281 C 22.113281 26.550781 22.167969 27.375 22.167969 28.125 C 22.167969 28.960938 22.167969 30.632812 20.796875 30.902344 Z M 20.796875 30.902344 " fill-opacity="1" fill-rule="nonzero"/><path fill="#403d37" d="M 33.980469 34.753906 L 27.585938 34.753906 C 26.90625 34.753906 26.246094 34.511719 25.726562 34.070312 C 25.082031 33.523438 24.710938 32.726562 24.710938 31.882812 C 24.710938 30.703125 25.453125 29.625 26.550781 29.199219 C 26.882812 29.074219 27.230469 29.007812 27.585938 29.007812 L 33.980469 29.007812 C 34.335938 29.007812 34.683594 29.074219 35.015625 29.199219 C 36.113281 29.625 36.855469 30.703125 36.855469 31.882812 C 36.855469 32.726562 36.484375 33.523438 35.839844 34.070312 C 35.320312 34.511719 34.660156 34.753906 33.980469 34.753906 Z M 27.585938 29.621094 C 27.304688 29.621094 27.03125 29.671875 26.773438 29.769531 C 25.90625 30.105469 25.324219 30.953125 25.324219 31.882812 C 25.324219 32.546875 25.617188 33.175781 26.125 33.605469 C 26.53125 33.953125 27.050781 34.140625 27.585938 34.140625 L 33.980469 34.140625 C 34.515625 34.140625 35.035156 33.953125 35.441406 33.605469 C 35.949219 33.175781 36.242188 32.546875 36.242188 31.882812 C 36.242188 30.953125 35.660156 30.105469 34.792969 29.769531 C 34.535156 29.671875 34.261719 29.621094 33.980469 29.621094 Z M 27.585938 29.621094 " fill-opacity="1" fill-rule="nonzero"/><path fill="#403d37" d="M 30.890625 45.082031 C 30.855469 45.082031 30.820312 45.082031 30.78125 45.082031 C 29.367188 45.101562 27.992188 44.753906 26.816406 44.078125 C 25.695312 43.433594 24.636719 42.371094 23.671875 40.914062 L 23.160156 40.140625 L 24.035156 40.460938 C 28.511719 42.097656 33.054688 42.097656 37.53125 40.460938 L 38.40625 40.140625 L 37.894531 40.914062 C 36.929688 42.371094 35.871094 43.433594 34.75 44.078125 C 33.601562 44.734375 32.269531 45.082031 30.890625 45.082031 Z M 30.78125 44.46875 L 30.789062 44.46875 C 32.097656 44.488281 33.363281 44.167969 34.445312 43.546875 C 35.28125 43.066406 36.082031 42.328125 36.839844 41.34375 C 32.816406 42.617188 28.75 42.617188 24.726562 41.34375 C 25.480469 42.328125 26.285156 43.066406 27.121094 43.546875 C 28.203125 44.167969 29.46875 44.484375 30.777344 44.46875 Z M 30.78125 44.46875 " fill-opacity="1" fill-rule="nonzero"/><path fill="#403d37" d="M 43.253906 35.429688 L 42.863281 35.054688 C 42.738281 34.9375 42.644531 34.796875 42.582031 34.640625 L 40.925781 30.355469 L 41.328125 30.320312 C 41.949219 30.261719 42.515625 29.875 42.847656 29.28125 L 43.199219 28.644531 L 44.753906 33.902344 C 44.800781 34.0625 44.8125 34.230469 44.785156 34.402344 L 44.703125 34.9375 L 44.285156 34.589844 C 44.167969 34.488281 44.019531 34.445312 43.867188 34.460938 C 43.621094 34.484375 43.425781 34.660156 43.371094 34.898438 Z M 41.777344 30.859375 L 43.074219 34.207031 C 43.261719 34.011719 43.515625 33.878906 43.800781 33.851562 C 43.902344 33.839844 44.003906 33.84375 44.101562 33.859375 L 42.996094 30.113281 C 42.660156 30.476562 42.238281 30.738281 41.777344 30.859375 Z M 41.777344 30.859375 " fill-opacity="1" fill-rule="nonzero"/><path fill="#403d37" d="M 41.167969 30.9375 C 39.398438 30.9375 39.398438 29.039062 39.398438 28.125 C 39.398438 27.214844 39.398438 25.3125 41.167969 25.3125 C 42.59375 25.3125 43.753906 26.574219 43.753906 28.125 C 43.753906 28.640625 43.625 29.140625 43.382812 29.578125 C 42.953125 30.347656 42.207031 30.851562 41.382812 30.929688 C 41.308594 30.933594 41.234375 30.9375 41.167969 30.9375 Z M 41.167969 25.925781 C 40.324219 25.925781 40.007812 26.523438 40.007812 28.125 C 40.007812 29.730469 40.324219 30.328125 41.167969 30.328125 C 41.21875 30.328125 41.269531 30.324219 41.328125 30.320312 C 41.949219 30.261719 42.515625 29.875 42.847656 29.28125 C 43.039062 28.933594 43.140625 28.535156 43.140625 28.125 C 43.140625 26.914062 42.253906 25.925781 41.167969 25.925781 Z M 41.167969 25.925781 " fill-opacity="1" fill-rule="nonzero"/><path fill="#403d37" d="M 44.191406 43.234375 L 43.820312 43.179688 C 42.953125 43.058594 42.300781 42.304688 42.300781 41.425781 L 42.304688 36.476562 C 42.304688 35.960938 42.53125 35.472656 42.925781 35.136719 L 43.238281 34.863281 L 43.40625 35.246094 C 43.503906 35.472656 43.734375 35.609375 43.980469 35.585938 C 44.230469 35.558594 44.429688 35.378906 44.476562 35.136719 L 44.558594 34.726562 L 44.925781 34.925781 C 45.378906 35.175781 45.703125 35.609375 45.808594 36.113281 L 46.828125 40.957031 C 47.007812 41.816406 46.523438 42.6875 45.699219 42.984375 L 45.347656 43.113281 L 45.292969 42.746094 C 45.246094 42.445312 44.976562 42.238281 44.675781 42.269531 C 44.375 42.300781 44.152344 42.558594 44.171875 42.859375 Z M 43.097656 35.859375 C 42.980469 36.042969 42.917969 36.257812 42.914062 36.476562 L 42.910156 41.425781 C 42.910156 41.894531 43.195312 42.308594 43.609375 42.488281 C 43.742188 42.046875 44.128906 41.710938 44.613281 41.660156 C 45.097656 41.609375 45.542969 41.859375 45.765625 42.265625 C 46.132812 42.003906 46.324219 41.539062 46.230469 41.082031 L 45.207031 36.242188 C 45.164062 36.023438 45.058594 35.828125 44.90625 35.671875 C 44.714844 35.960938 44.40625 36.15625 44.046875 36.191406 C 43.683594 36.230469 43.339844 36.101562 43.097656 35.859375 Z M 43.097656 35.859375 " fill-opacity="1" fill-rule="nonzero"/><path fill="#403d37" d="M 43.921875 36.199219 C 43.453125 36.199219 43.03125 35.925781 42.84375 35.488281 C 42.796875 35.378906 42.765625 35.261719 42.753906 35.144531 C 42.738281 35.019531 42.746094 34.894531 42.773438 34.769531 C 42.882812 34.273438 43.296875 33.902344 43.800781 33.851562 C 44.121094 33.816406 44.433594 33.914062 44.679688 34.121094 C 44.914062 34.316406 45.0625 34.59375 45.09375 34.902344 C 45.105469 35.019531 45.101562 35.140625 45.078125 35.257812 C 44.976562 35.761719 44.558594 36.140625 44.046875 36.191406 C 44.003906 36.199219 43.960938 36.199219 43.921875 36.199219 Z M 43.925781 34.457031 C 43.90625 34.457031 43.886719 34.457031 43.863281 34.460938 C 43.621094 34.484375 43.425781 34.660156 43.371094 34.898438 C 43.359375 34.960938 43.355469 35.019531 43.359375 35.082031 C 43.367188 35.136719 43.382812 35.195312 43.402344 35.246094 C 43.503906 35.472656 43.734375 35.609375 43.980469 35.585938 C 44.230469 35.558594 44.429688 35.378906 44.476562 35.136719 C 44.488281 35.078125 44.492188 35.019531 44.484375 34.964844 C 44.472656 34.816406 44.398438 34.683594 44.285156 34.589844 C 44.183594 34.503906 44.054688 34.457031 43.925781 34.457031 Z M 43.925781 34.457031 " fill-opacity="1" fill-rule="nonzero"/><g clip-path="url(#13d527dcc4)"><path fill="#403d37" d="M 44.351562 50.621094 C 43.84375 50.621094 43.40625 50.234375 43.355469 49.722656 L 43.039062 46.679688 L 43.589844 47.070312 C 43.703125 47.152344 43.84375 47.191406 43.984375 47.175781 L 45.09375 47.0625 L 45.347656 49.515625 C 45.40625 50.0625 45.003906 50.558594 44.453125 50.613281 C 44.417969 50.617188 44.386719 50.621094 44.351562 50.621094 Z M 43.769531 47.78125 L 43.960938 49.65625 C 43.984375 49.871094 44.175781 50.027344 44.390625 50.007812 C 44.605469 49.984375 44.761719 49.792969 44.738281 49.578125 L 44.546875 47.734375 L 44.050781 47.785156 C 43.953125 47.792969 43.859375 47.792969 43.769531 47.78125 Z M 43.769531 47.78125 " fill-opacity="1" fill-rule="nonzero"/></g><g clip-path="url(#0dbf4cc52a)"><path fill="#403d37" d="M 45.734375 50.476562 C 45.230469 50.476562 44.792969 50.09375 44.738281 49.578125 L 44.484375 47.125 L 46.480469 46.917969 L 46.734375 49.371094 C 46.792969 49.917969 46.390625 50.414062 45.839844 50.472656 C 45.804688 50.472656 45.769531 50.476562 45.734375 50.476562 Z M 45.15625 47.671875 L 45.347656 49.515625 C 45.371094 49.726562 45.5625 49.882812 45.777344 49.863281 C 45.992188 49.839844 46.148438 49.648438 46.125 49.433594 L 45.933594 47.589844 Z M 45.15625 47.671875 " fill-opacity="1" fill-rule="nonzero"/></g><g clip-path="url(#f0089da87e)"><path fill="#403d37" d="M 47.121094 50.332031 C 46.890625 50.332031 46.671875 50.253906 46.492188 50.109375 C 46.28125 49.9375 46.152344 49.699219 46.125 49.433594 L 45.871094 46.980469 L 46.980469 46.867188 C 47.160156 46.847656 47.277344 46.753906 47.34375 46.683594 L 47.804688 46.179688 L 48.121094 49.226562 C 48.175781 49.777344 47.777344 50.269531 47.226562 50.328125 C 47.191406 50.332031 47.15625 50.332031 47.121094 50.332031 Z M 46.542969 47.527344 L 46.734375 49.371094 C 46.746094 49.472656 46.796875 49.566406 46.875 49.632812 C 46.957031 49.699219 47.058594 49.730469 47.164062 49.71875 C 47.378906 49.695312 47.535156 49.503906 47.511719 49.289062 L 47.316406 47.414062 C 47.226562 47.445312 47.136719 47.464844 47.042969 47.472656 Z M 46.542969 47.527344 " fill-opacity="1" fill-rule="nonzero"/></g><path fill="#403d37" d="M 41.921875 48.492188 C 41.691406 48.492188 41.457031 48.417969 41.265625 48.257812 C 41.050781 48.082031 40.917969 47.835938 40.890625 47.558594 C 40.863281 47.285156 40.945312 47.015625 41.121094 46.800781 L 43.308594 44.132812 L 43.34375 46.609375 C 43.347656 46.714844 43.378906 46.820312 43.4375 46.910156 L 43.558594 47.097656 L 42.722656 48.113281 C 42.519531 48.363281 42.222656 48.492188 41.921875 48.492188 Z M 42.722656 45.8125 L 41.59375 47.1875 C 41.519531 47.273438 41.488281 47.386719 41.5 47.5 C 41.511719 47.613281 41.566406 47.714844 41.652344 47.785156 C 41.832031 47.933594 42.101562 47.910156 42.25 47.726562 L 42.816406 47.035156 C 42.765625 46.902344 42.734375 46.761719 42.734375 46.617188 Z M 42.722656 45.8125 " fill-opacity="1" fill-rule="nonzero"/><g clip-path="url(#1b7e867d94)"><path fill="#403d37" d="M 43.925781 47.792969 C 43.679688 47.792969 43.4375 47.714844 43.234375 47.570312 C 43.109375 47.480469 43.003906 47.371094 42.921875 47.242188 C 42.800781 47.054688 42.738281 46.839844 42.734375 46.617188 L 42.695312 44 C 42.683594 43.328125 43.152344 42.75 43.808594 42.625 L 44.136719 42.5625 L 44.171875 42.890625 C 44.207031 43.199219 44.484375 43.425781 44.792969 43.394531 C 45.101562 43.363281 45.328125 43.082031 45.296875 42.773438 L 45.265625 42.46875 L 45.632812 42.429688 C 46.253906 42.367188 46.839844 42.726562 47.0625 43.3125 L 48.035156 45.863281 C 48.195312 46.289062 48.101562 46.761719 47.796875 47.09375 C 47.597656 47.308594 47.332031 47.445312 47.042969 47.472656 L 44.050781 47.785156 C 44.007812 47.789062 43.964844 47.792969 43.925781 47.792969 Z M 43.667969 43.328125 C 43.445312 43.464844 43.300781 43.714844 43.304688 43.988281 L 43.34375 46.609375 C 43.347656 46.714844 43.378906 46.820312 43.4375 46.910156 C 43.476562 46.976562 43.53125 47.027344 43.589844 47.070312 C 43.703125 47.152344 43.84375 47.191406 43.984375 47.175781 L 46.980469 46.867188 C 47.160156 46.847656 47.277344 46.753906 47.34375 46.683594 C 47.496094 46.519531 47.539062 46.289062 47.460938 46.082031 L 46.492188 43.527344 C 46.390625 43.265625 46.160156 43.085938 45.890625 43.042969 C 45.800781 43.542969 45.386719 43.945312 44.855469 44.003906 C 44.34375 44.054688 43.871094 43.769531 43.667969 43.328125 Z M 43.667969 43.328125 " fill-opacity="1" fill-rule="nonzero"/></g><path fill="#403d37" d="M 44.734375 44.007812 C 44.144531 44.007812 43.636719 43.566406 43.566406 42.96875 L 43.5625 42.953125 C 43.5625 42.9375 43.558594 42.917969 43.558594 42.902344 L 43.558594 42.894531 C 43.527344 42.265625 43.988281 41.726562 44.613281 41.660156 C 45.238281 41.597656 45.800781 42.03125 45.894531 42.652344 L 45.898438 42.660156 C 45.902344 42.675781 45.902344 42.691406 45.90625 42.710938 C 45.972656 43.355469 45.5 43.933594 44.855469 44.003906 C 44.816406 44.007812 44.773438 44.007812 44.734375 44.007812 Z M 44.171875 42.886719 L 44.171875 42.890625 C 44.207031 43.199219 44.484375 43.425781 44.792969 43.394531 C 45.101562 43.363281 45.328125 43.082031 45.296875 42.773438 L 45.292969 42.746094 C 45.246094 42.445312 44.976562 42.238281 44.675781 42.269531 C 44.375 42.300781 44.152344 42.558594 44.171875 42.859375 Z M 44.171875 42.886719 " fill-opacity="1" fill-rule="nonzero"/><g clip-path="url(#4a6efb1131)"><path fill="#403d37" d="M 41.605469 11.503906 L 41.042969 11.503906 L 40.960938 11.328125 C 40.347656 10.027344 39.300781 8.953125 38.011719 8.3125 L 37.84375 8.226562 L 37.84375 3.011719 C 37.84375 2.789062 37.964844 2.589844 38.164062 2.488281 C 38.363281 2.390625 38.597656 2.410156 38.777344 2.542969 L 39.273438 2.917969 C 39.871094 3.367188 40.273438 4.023438 40.402344 4.761719 Z M 38.453125 7.851562 C 39.308594 8.308594 40.0625 8.9375 40.660156 9.691406 L 39.800781 4.867188 C 39.699219 4.285156 39.378906 3.761719 38.902344 3.40625 L 38.453125 3.066406 Z M 38.453125 7.851562 " fill-opacity="1" fill-rule="nonzero"/></g><g clip-path="url(#2343582476)"><path fill="#403d37" d="M 20.523438 11.503906 L 19.964844 11.503906 L 20.027344 11.144531 L 21.164062 4.761719 C 21.292969 4.023438 21.695312 3.367188 22.292969 2.917969 L 22.789062 2.542969 C 22.96875 2.410156 23.203125 2.390625 23.402344 2.488281 C 23.601562 2.589844 23.722656 2.789062 23.722656 3.011719 L 23.722656 8.226562 L 23.554688 8.3125 C 22.265625 8.953125 21.21875 10.027344 20.605469 11.328125 Z M 23.113281 3.066406 L 22.664062 3.40625 C 22.1875 3.761719 21.867188 4.285156 21.765625 4.867188 L 20.90625 9.691406 C 21.503906 8.9375 22.257812 8.308594 23.113281 7.851562 Z M 23.113281 3.066406 " fill-opacity="1" fill-rule="nonzero"/></g><path fill="#403d37" d="M 20.179688 17.609375 L 19.425781 17.609375 C 18.515625 17.609375 17.773438 16.867188 17.773438 15.953125 L 17.773438 12.546875 C 17.773438 11.632812 18.515625 10.890625 19.425781 10.890625 L 20.8125 10.890625 L 20.605469 11.328125 C 20.199219 12.1875 19.992188 13.109375 19.992188 14.066406 L 19.992188 16.03125 C 19.992188 16.441406 20.03125 16.847656 20.109375 17.246094 Z M 19.425781 11.503906 C 18.851562 11.503906 18.386719 11.972656 18.386719 12.546875 L 18.386719 15.953125 C 18.386719 16.53125 18.851562 16.996094 19.425781 16.996094 L 19.449219 16.996094 C 19.402344 16.679688 19.382812 16.355469 19.382812 16.03125 L 19.382812 14.066406 C 19.382812 13.175781 19.542969 12.316406 19.863281 11.503906 Z M 19.425781 11.503906 " fill-opacity="1" fill-rule="nonzero"/><path fill="#403d37" d="M 42.140625 17.609375 L 41.386719 17.609375 L 41.457031 17.246094 C 41.535156 16.847656 41.574219 16.441406 41.574219 16.03125 L 41.574219 14.066406 C 41.574219 13.109375 41.367188 12.1875 40.960938 11.328125 L 40.753906 10.890625 L 42.140625 10.890625 C 43.050781 10.890625 43.792969 11.632812 43.792969 12.546875 L 43.792969 15.953125 C 43.792969 16.867188 43.050781 17.609375 42.140625 17.609375 Z M 42.117188 16.996094 L 42.140625 16.996094 C 42.714844 16.996094 43.179688 16.53125 43.179688 15.953125 L 43.179688 12.546875 C 43.179688 11.972656 42.714844 11.503906 42.140625 11.503906 L 41.703125 11.503906 C 42.023438 12.316406 42.183594 13.175781 42.183594 14.066406 L 42.183594 16.03125 C 42.183594 16.355469 42.160156 16.679688 42.117188 16.996094 Z M 42.117188 16.996094 " fill-opacity="1" fill-rule="nonzero"/><path fill="#403d37" d="M 35.144531 23.070312 L 26.421875 23.070312 C 22.539062 23.070312 19.382812 19.914062 19.382812 16.03125 L 19.382812 14.066406 C 19.382812 10.183594 22.539062 7.027344 26.421875 7.027344 L 35.144531 7.027344 C 39.027344 7.027344 42.183594 10.183594 42.183594 14.066406 L 42.183594 16.03125 C 42.183594 19.914062 39.027344 23.070312 35.144531 23.070312 Z M 26.421875 7.640625 C 22.875 7.640625 19.992188 10.523438 19.992188 14.066406 L 19.992188 16.03125 C 19.992188 19.578125 22.875 22.460938 26.421875 22.460938 L 35.144531 22.460938 C 38.6875 22.460938 41.574219 19.578125 41.574219 16.03125 L 41.574219 14.066406 C 41.574219 10.523438 38.6875 7.640625 35.144531 7.640625 Z M 26.421875 7.640625 " fill-opacity="1" fill-rule="nonzero"/><path fill="#403d37" d="M 35.144531 21.304688 L 26.421875 21.304688 C 23.511719 21.304688 21.148438 18.941406 21.148438 16.03125 L 21.148438 14.066406 C 21.148438 11.15625 23.511719 8.792969 26.421875 8.792969 C 27.066406 8.792969 27.640625 9.226562 27.808594 9.851562 L 28.214844 11.324219 C 28.371094 11.90625 28.90625 12.3125 29.507812 12.3125 L 32.058594 12.3125 C 32.660156 12.3125 33.191406 11.90625 33.351562 11.324219 L 33.753906 9.851562 C 33.925781 9.226562 34.5 8.792969 35.144531 8.792969 C 38.054688 8.792969 40.417969 11.15625 40.417969 14.066406 L 40.417969 16.03125 C 40.417969 18.941406 38.054688 21.304688 35.144531 21.304688 Z M 26.421875 9.402344 C 23.851562 9.402344 21.757812 11.496094 21.757812 14.066406 L 21.757812 16.03125 C 21.757812 18.601562 23.851562 20.695312 26.421875 20.695312 L 35.144531 20.695312 C 37.714844 20.695312 39.808594 18.601562 39.808594 16.03125 L 39.808594 14.066406 C 39.808594 11.496094 37.714844 9.402344 35.144531 9.402344 C 34.773438 9.402344 34.445312 9.65625 34.347656 10.015625 L 33.941406 11.488281 C 33.710938 12.335938 32.933594 12.925781 32.058594 12.925781 L 29.507812 12.925781 C 28.628906 12.925781 27.855469 12.335938 27.625 11.488281 L 27.21875 10.015625 C 27.121094 9.65625 26.792969 9.402344 26.421875 9.402344 Z M 26.421875 9.402344 " fill-opacity="1" fill-rule="nonzero"/><path fill="#403d37" d="M 30.789062 18.667969 C 30.785156 18.667969 30.777344 18.667969 30.773438 18.667969 C 29.734375 18.664062 28.832031 18.238281 28.351562 17.53125 C 28.257812 17.390625 28.296875 17.199219 28.433594 17.105469 C 28.574219 17.011719 28.765625 17.046875 28.859375 17.1875 C 29.21875 17.71875 29.953125 18.050781 30.777344 18.054688 C 31.609375 18.058594 32.332031 17.734375 32.707031 17.1875 C 32.804688 17.046875 32.992188 17.011719 33.132812 17.109375 C 33.273438 17.203125 33.308594 17.394531 33.210938 17.53125 C 32.722656 18.242188 31.816406 18.667969 30.789062 18.667969 Z M 30.789062 18.667969 " fill-opacity="1" fill-rule="nonzero"/><path fill="#403d37" d="M 18.386719 28.519531 L 14.355469 25.136719 C 14.226562 25.03125 14.125 24.894531 14.054688 24.738281 L 13.828125 24.246094 L 14.363281 24.308594 C 14.503906 24.324219 14.640625 24.289062 14.753906 24.207031 C 14.964844 24.058594 15.046875 23.785156 14.953125 23.542969 L 14.757812 23.039062 L 15.292969 23.132812 C 15.460938 23.160156 15.617188 23.226562 15.757812 23.324219 L 19.617188 26.058594 L 19.289062 26.308594 C 18.796875 26.683594 18.488281 27.273438 18.433594 27.929688 Z M 14.921875 24.816406 L 17.917969 27.328125 C 18.046875 26.859375 18.285156 26.433594 18.613281 26.09375 L 15.585938 23.953125 C 15.535156 24.25 15.367188 24.523438 15.105469 24.707031 C 15.046875 24.75 14.988281 24.785156 14.921875 24.816406 Z M 14.921875 24.816406 " fill-opacity="1" fill-rule="nonzero"/><path fill="#403d37" d="M 13.582031 24.320312 C 13.070312 24.320312 12.585938 24.101562 12.25 23.714844 L 8.992188 19.992188 C 8.414062 19.332031 8.410156 18.335938 8.980469 17.671875 L 9.226562 17.390625 L 9.453125 17.683594 C 9.589844 17.855469 9.8125 17.933594 10.023438 17.886719 C 10.328125 17.816406 10.519531 17.511719 10.449219 17.207031 C 10.4375 17.148438 10.410156 17.085938 10.375 17.03125 L 10.175781 16.71875 L 10.523438 16.582031 C 11.339844 16.265625 12.28125 16.601562 12.707031 17.367188 L 15.128906 21.683594 C 15.378906 22.136719 15.421875 22.671875 15.246094 23.160156 L 15.101562 23.550781 L 14.769531 23.296875 C 14.574219 23.144531 14.304688 23.140625 14.101562 23.285156 C 13.898438 23.429688 13.8125 23.683594 13.890625 23.917969 L 14.015625 24.316406 L 13.601562 24.320312 C 13.59375 24.320312 13.589844 24.320312 13.582031 24.320312 Z M 9.277344 18.332031 C 9.082031 18.738281 9.144531 19.238281 9.453125 19.589844 L 12.710938 23.3125 C 12.855469 23.480469 13.042969 23.597656 13.253906 23.660156 C 13.277344 23.316406 13.453125 22.992188 13.75 22.785156 C 14.042969 22.578125 14.40625 22.519531 14.738281 22.609375 C 14.75 22.394531 14.703125 22.175781 14.59375 21.984375 L 12.175781 17.667969 C 11.945312 17.257812 11.496094 17.035156 11.046875 17.082031 C 11.1875 17.710938 10.789062 18.339844 10.160156 18.480469 C 9.855469 18.550781 9.535156 18.492188 9.277344 18.332031 Z M 9.277344 18.332031 " fill-opacity="1" fill-rule="nonzero"/><path fill="#403d37" d="M 11.117188 13.308594 L 10.523438 12.984375 C 10.398438 12.917969 10.253906 12.898438 10.117188 12.929688 L 9.03125 13.179688 L 8.484375 10.773438 C 8.425781 10.511719 8.46875 10.246094 8.613281 10.019531 C 8.753906 9.792969 8.976562 9.632812 9.238281 9.574219 C 9.5 9.515625 9.769531 9.558594 9.996094 9.703125 C 10.222656 9.84375 10.378906 10.066406 10.4375 10.328125 Z M 9.460938 10.160156 C 9.433594 10.160156 9.402344 10.164062 9.375 10.171875 C 9.273438 10.195312 9.1875 10.253906 9.132812 10.34375 C 9.074219 10.433594 9.058594 10.535156 9.082031 10.636719 L 9.492188 12.445312 L 9.980469 12.332031 C 10.074219 12.3125 10.167969 12.300781 10.261719 12.304688 L 9.84375 10.464844 C 9.820312 10.363281 9.757812 10.277344 9.667969 10.21875 C 9.605469 10.179688 9.535156 10.160156 9.460938 10.160156 Z M 9.460938 10.160156 " fill-opacity="1" fill-rule="nonzero"/><path fill="#403d37" d="M 7.671875 13.488281 L 7.125 11.082031 C 7.003906 10.542969 7.34375 10.007812 7.878906 9.882812 C 8.417969 9.761719 8.957031 10.097656 9.082031 10.636719 L 9.628906 13.042969 Z M 8.101562 10.46875 C 8.074219 10.46875 8.046875 10.472656 8.015625 10.480469 C 7.804688 10.527344 7.675781 10.738281 7.722656 10.949219 L 8.132812 12.753906 L 8.894531 12.582031 L 8.484375 10.773438 C 8.441406 10.59375 8.28125 10.46875 8.101562 10.46875 Z M 8.101562 10.46875 " fill-opacity="1" fill-rule="nonzero"/><g clip-path="url(#2d781eb99e)"><path fill="#403d37" d="M 6.445312 14.378906 L 5.765625 11.394531 C 5.644531 10.855469 5.984375 10.316406 6.523438 10.191406 C 6.78125 10.132812 7.050781 10.179688 7.277344 10.324219 C 7.503906 10.464844 7.664062 10.6875 7.722656 10.949219 L 8.269531 13.351562 L 7.183594 13.597656 C 7.007812 13.640625 6.902344 13.742188 6.84375 13.824219 Z M 6.746094 10.78125 C 6.714844 10.78125 6.6875 10.78125 6.65625 10.789062 C 6.449219 10.835938 6.316406 11.046875 6.363281 11.257812 L 6.78125 13.097656 C 6.867188 13.054688 6.957031 13.023438 7.050781 13.003906 L 7.539062 12.890625 L 7.125 11.082031 C 7.101562 10.980469 7.042969 10.894531 6.953125 10.839844 C 6.890625 10.800781 6.820312 10.78125 6.746094 10.78125 Z M 6.746094 10.78125 " fill-opacity="1" fill-rule="nonzero"/></g><path fill="#403d37" d="M 11.078125 15.273438 L 10.820312 13.417969 C 10.808594 13.3125 10.765625 13.214844 10.699219 13.132812 L 10.523438 12.914062 L 11.625 11.839844 C 11.824219 11.648438 12.085938 11.542969 12.363281 11.546875 C 12.640625 11.550781 12.898438 11.660156 13.09375 11.859375 C 13.289062 12.058594 13.390625 12.320312 13.386719 12.597656 C 13.382812 12.871094 13.273438 13.132812 13.074219 13.324219 Z M 11.324219 12.988281 C 11.375 13.097656 11.410156 13.214844 11.429688 13.335938 L 11.519531 13.988281 L 12.648438 12.886719 C 12.730469 12.808594 12.773438 12.703125 12.777344 12.589844 C 12.777344 12.472656 12.734375 12.367188 12.65625 12.285156 C 12.578125 12.203125 12.46875 12.160156 12.355469 12.15625 C 12.242188 12.15625 12.136719 12.199219 12.054688 12.277344 Z M 11.324219 12.988281 " fill-opacity="1" fill-rule="nonzero"/><path fill="#403d37" d="M 8.75 17.875 C 8.246094 17.875 7.769531 17.597656 7.53125 17.136719 L 6.257812 14.71875 C 6.085938 14.390625 6.074219 14.003906 6.230469 13.667969 C 6.386719 13.328125 6.683594 13.085938 7.046875 13.003906 L 9.980469 12.332031 C 10.308594 12.261719 10.652344 12.328125 10.925781 12.515625 C 11.199219 12.707031 11.382812 13.003906 11.429688 13.335938 L 11.785156 15.929688 C 11.875 16.59375 11.476562 17.222656 10.839844 17.425781 L 10.523438 17.527344 L 10.449219 17.207031 C 10.378906 16.902344 10.074219 16.714844 9.773438 16.78125 C 9.625 16.816406 9.5 16.90625 9.417969 17.03125 C 9.339844 17.160156 9.3125 17.3125 9.347656 17.460938 L 9.414062 17.757812 L 9.054688 17.839844 C 8.953125 17.863281 8.851562 17.875 8.75 17.875 Z M 10.25 12.914062 C 10.207031 12.914062 10.160156 12.921875 10.117188 12.929688 L 7.183594 13.597656 C 7.007812 13.640625 6.863281 13.757812 6.785156 13.921875 C 6.710938 14.085938 6.714844 14.273438 6.800781 14.433594 L 8.070312 16.855469 C 8.199219 17.101562 8.453125 17.253906 8.722656 17.261719 C 8.734375 17.066406 8.796875 16.878906 8.902344 16.707031 C 9.070312 16.441406 9.332031 16.257812 9.636719 16.1875 C 10.136719 16.070312 10.640625 16.300781 10.898438 16.714844 C 11.101562 16.550781 11.214844 16.285156 11.175781 16.011719 L 10.820312 13.417969 C 10.800781 13.253906 10.710938 13.113281 10.578125 13.019531 C 10.480469 12.949219 10.367188 12.914062 10.25 12.914062 Z M 10.25 12.914062 " fill-opacity="1" fill-rule="nonzero"/><path fill="#403d37" d="M 9.894531 18.511719 C 9.675781 18.511719 9.460938 18.449219 9.273438 18.332031 C 9.003906 18.164062 8.820312 17.902344 8.75 17.59375 C 8.679688 17.289062 8.734375 16.972656 8.902344 16.707031 C 9.070312 16.441406 9.332031 16.257812 9.636719 16.1875 C 9.945312 16.117188 10.257812 16.171875 10.523438 16.335938 C 10.792969 16.503906 10.976562 16.765625 11.046875 17.074219 C 11.117188 17.378906 11.0625 17.695312 10.894531 17.960938 C 10.726562 18.226562 10.464844 18.414062 10.160156 18.480469 C 10.074219 18.5 9.984375 18.511719 9.894531 18.511719 Z M 9.898438 16.769531 C 9.859375 16.769531 9.816406 16.773438 9.773438 16.78125 C 9.625 16.816406 9.5 16.90625 9.417969 17.03125 C 9.339844 17.160156 9.3125 17.3125 9.347656 17.460938 C 9.378906 17.605469 9.46875 17.730469 9.597656 17.8125 C 9.726562 17.894531 9.875 17.917969 10.023438 17.886719 C 10.171875 17.851562 10.296875 17.761719 10.378906 17.636719 C 10.457031 17.507812 10.484375 17.355469 10.449219 17.207031 C 10.417969 17.0625 10.328125 16.9375 10.199219 16.855469 C 10.109375 16.796875 10.003906 16.769531 9.898438 16.769531 Z M 9.898438 16.769531 " fill-opacity="1" fill-rule="nonzero"/><path fill="#403d37" d="M 14.429688 24.921875 C 14.058594 24.921875 13.695312 24.75 13.464844 24.425781 C 13.285156 24.167969 13.214844 23.855469 13.269531 23.546875 C 13.320312 23.238281 13.492188 22.964844 13.75 22.785156 C 14.003906 22.605469 14.316406 22.53125 14.628906 22.585938 C 14.9375 22.640625 15.207031 22.8125 15.390625 23.066406 C 15.570312 23.324219 15.640625 23.636719 15.589844 23.945312 C 15.535156 24.257812 15.363281 24.527344 15.105469 24.707031 C 14.902344 24.855469 14.664062 24.921875 14.429688 24.921875 Z M 13.964844 24.074219 C 14.144531 24.328125 14.5 24.386719 14.753906 24.207031 C 15.007812 24.027344 15.070312 23.675781 14.890625 23.421875 C 14.804688 23.296875 14.671875 23.214844 14.523438 23.191406 C 14.375 23.164062 14.226562 23.199219 14.101562 23.285156 C 13.976562 23.371094 13.894531 23.503906 13.871094 23.652344 C 13.84375 23.800781 13.878906 23.949219 13.964844 24.074219 Z M 13.964844 24.074219 " fill-opacity="1" fill-rule="nonzero"/><path fill="#403d37" d="M 20.398438 30.9375 C 20.332031 30.9375 20.261719 30.933594 20.183594 30.929688 C 19.359375 30.855469 18.613281 30.347656 18.183594 29.578125 C 17.941406 29.140625 17.8125 28.640625 17.8125 28.125 C 17.8125 26.574219 18.972656 25.316406 20.398438 25.316406 C 22.167969 25.316406 22.167969 27.214844 22.167969 28.125 C 22.167969 29.039062 22.167969 30.9375 20.398438 30.9375 Z M 20.398438 25.925781 C 19.3125 25.925781 18.425781 26.914062 18.425781 28.125 C 18.425781 28.535156 18.527344 28.9375 18.71875 29.28125 C 19.050781 29.875 19.617188 30.261719 20.238281 30.320312 C 20.296875 30.324219 20.351562 30.328125 20.398438 30.328125 C 21.242188 30.328125 21.558594 29.730469 21.558594 28.125 C 21.558594 26.523438 21.242188 25.925781 20.398438 25.925781 Z M 20.398438 25.925781 " fill-opacity="1" fill-rule="nonzero"/></svg>